<svg width="29" height="29" viewBox="0 0 29 29" fill="none" xmlns="http://www.w3.org/2000/svg">
<path d="M14.5003 14.5C16.3128 14.5 17.7628 13.05 17.7628 11.2375C17.7628 9.42497 16.3128 7.91455 14.5003 7.91455C12.6878 7.91455 11.2378 9.36455 11.2378 11.1771C11.2378 12.9896 12.6878 14.5 14.5003 14.5ZM14.5003 9.72705C15.2857 9.72705 15.9503 10.3916 15.9503 11.1771C15.9503 11.9625 15.2857 12.6875 14.5003 12.6875C13.7149 12.6875 13.0503 12.0229 13.0503 11.2375C13.0503 10.4521 13.7149 9.72705 14.5003 9.72705Z" fill="#E6A358"/>
<path d="M8.09619 21.3271C8.09619 21.5688 8.15661 21.8104 8.33786 21.9917C8.51911 22.1729 8.76077 22.2938 9.00244 22.2938H19.9379C20.1795 22.2938 20.4212 22.1729 20.6024 21.9917C20.7837 21.8104 20.8441 21.5688 20.8441 21.3271C20.6024 18.125 17.8233 15.5875 14.4399 15.5875C11.0566 15.5875 8.33786 18.125 8.09619 21.3271ZM18.9108 20.4813H10.0899C10.6941 18.6688 12.4462 17.4 14.5004 17.4C16.5545 17.4 18.3066 18.6688 18.9108 20.4813Z" fill="#E6A358"/>
<path d="M18.1856 0.302124H10.8148C10.271 0.302124 9.7877 0.725041 9.7877 1.32921V2.59796H6.10228C5.01478 2.59796 4.16895 3.50421 4.16895 4.53129V26.7646C4.16895 27.8521 5.0752 28.698 6.10228 28.698H22.8377C23.9252 28.698 24.771 27.7917 24.771 26.7646V4.53129C24.771 3.44379 23.8648 2.59796 22.8377 2.59796H19.1523V1.32921C19.2127 0.725041 18.7294 0.302124 18.1856 0.302124ZM11.6002 2.11462H17.3398V4.83337H11.6002V2.11462ZM22.8377 4.35004C22.8981 4.35004 22.9585 4.41046 22.9585 4.47087V26.7042C22.9585 26.7646 22.8981 26.825 22.8377 26.825H6.1627C6.10228 26.825 6.04186 26.7646 6.04186 26.7042V4.53129C6.04186 4.47087 6.10228 4.41046 6.1627 4.41046H9.84811V5.67921C9.84811 6.22296 10.271 6.70629 10.8752 6.70629H18.246C18.7898 6.70629 19.2731 6.28337 19.2731 5.67921V4.35004H22.8377Z" fill="#E6A358"/>
<path d="M19.9983 23.6833H9.00244C8.51911 23.6833 8.09619 24.1063 8.09619 24.5896C8.09619 25.0729 8.51911 25.4958 9.00244 25.4958H19.9379C20.4212 25.4958 20.8441 25.0729 20.8441 24.5896C20.8441 24.1063 20.4816 23.6833 19.9983 23.6833Z" fill="#E6A358"/>
</svg>
