<svg width="31" height="31" viewBox="0 0 31 31" fill="none" xmlns="http://www.w3.org/2000/svg">
<g clip-path="url(#clip0_1035_233)">
<path d="M15.5 0C6.95344 0 0 6.95344 0 15.5C0 24.0466 6.95344 31 15.5 31C24.0466 31 31 24.0466 31 15.5C31 6.95344 24.0466 0 15.5 0ZM15.5 29.0625C8.02149 29.0625 1.9375 22.9785 1.9375 15.5C1.9375 8.02149 8.02149 1.9375 15.5 1.9375C22.9785 1.9375 29.0625 8.02149 29.0625 15.5C29.0625 22.9785 22.9785 29.0625 15.5 29.0625ZM21.9974 14.8151C22.3759 15.1936 22.3759 15.8066 21.9974 16.1849L17.1537 21.0287C16.9645 21.2178 16.7165 21.3125 16.4688 21.3125C16.221 21.3125 15.973 21.2178 15.7838 21.0287C15.4053 20.6501 15.4053 20.0371 15.7838 19.6588L18.9739 16.4688H9.6875C9.15251 16.4688 8.71875 16.0355 8.71875 15.5C8.71875 14.9645 9.15251 14.5312 9.6875 14.5312H18.9739L15.7838 11.3412C15.4053 10.9626 15.4053 10.3496 15.7838 9.97134C16.1624 9.59305 16.7754 9.5928 17.1537 9.97134L21.9974 14.8151Z" fill="#FFEDD7"/>
</g>
<defs>
<clipPath id="clip0_1035_233">
<rect width="31" height="31" fill="white"/>
</clipPath>
</defs>
</svg>
