<svg width="88" height="87" viewBox="0 0 88 87" fill="none" xmlns="http://www.w3.org/2000/svg">
<circle cx="43.8307" cy="43.3756" r="43.3756" fill="#E0AF04"/>
<path d="M35.6702 23C34.8653 23 34.2139 23.6513 34.2139 24.4563V25.7775H31.9328C27.8099 25.7775 24.4551 29.1309 24.4551 33.2537V56.2984C24.4551 60.4212 27.8099 63.7761 31.9328 63.7761H54.9774C59.1002 63.7761 62.4551 60.4212 62.4551 56.2984V33.2537C62.4551 29.1309 59.1002 25.7775 54.9774 25.7775H52.6962V24.4563C52.6962 23.6513 52.0449 23 51.24 23C50.435 23 49.7837 23.6513 49.7837 24.4563V25.7775H37.1265V24.4563C37.1265 23.6513 36.4751 23 35.6702 23ZM49.7837 28.69V30.0098C49.7837 30.8147 50.435 31.4661 51.24 31.4661C52.0449 31.4661 52.6962 30.8147 52.6962 30.0098V28.69H54.9774C57.4946 28.69 59.5425 30.7379 59.5425 33.2537V56.2984C59.5425 58.8156 57.4946 60.8635 54.9774 60.8635H31.9328C29.4156 60.8635 27.3677 58.8156 27.3677 56.2984V33.2537C27.3677 30.7379 29.4156 28.69 31.9328 28.69H34.2139V30.0098C34.2139 30.8147 34.8653 31.4661 35.6702 31.4661C36.4751 31.4661 37.1265 30.8147 37.1265 30.0098V28.69H49.7837Z" fill="#844C0D"/>
<path d="M31.991 41.8406C31.5444 43.2144 31.9099 44.6934 32.9438 45.7003L35.1468 47.8478C35.3473 48.0426 35.4383 48.3256 35.3914 48.6029L34.8723 51.6321C34.6277 53.0557 35.2008 54.4665 36.3684 55.3155C37.536 56.1617 39.0563 56.2783 40.3376 55.6028L43.0582 54.1721C43.3057 54.0413 43.6043 54.0413 43.8518 54.1721L46.5738 55.6042C47.1298 55.8958 47.73 56.0394 48.3287 56.0394C49.1081 56.0394 49.8803 55.7948 50.5416 55.3155C51.7092 54.4665 52.2823 53.0557 52.0377 51.6336L51.5186 48.6015C51.4717 48.3256 51.5627 48.0426 51.7646 47.8464L53.9661 45.7017C55 44.6934 55.3655 43.2144 54.919 41.8406C54.4724 40.4668 53.3077 39.4841 51.8784 39.2779L48.835 38.8356C48.5577 38.7943 48.3173 38.6194 48.1922 38.3677L46.8326 35.6116C46.1941 34.316 44.8999 33.5125 43.455 33.5125C42.0101 33.5125 40.7159 34.316 40.0774 35.6116L38.7178 38.3677C38.5926 38.6194 38.3523 38.7943 38.075 38.8356L35.0316 39.2779C33.6023 39.4841 32.4375 40.4668 31.991 41.8406ZM41.3289 39.6562L42.6884 36.9C42.9003 36.4705 43.2957 36.425 43.455 36.425C43.6143 36.425 44.0096 36.4705 44.2215 36.9L45.5811 39.6562C46.1301 40.7683 47.1896 41.5391 48.4169 41.7169L51.4603 42.1592C51.9339 42.2288 52.0988 42.5886 52.1486 42.7408C52.1984 42.8916 52.2752 43.2812 51.9325 43.6154L49.7324 45.7601C48.8421 46.6262 48.4368 47.8734 48.6487 49.095L49.1678 52.1271C49.2488 52.5964 48.9573 52.8651 48.8279 52.959C48.6999 53.0529 48.3529 53.252 47.9291 53.0259L45.2085 51.5952C44.6596 51.3065 44.0566 51.1614 43.455 51.1614C42.8534 51.1614 42.2504 51.3065 41.7015 51.5952L38.9823 53.0244C38.5571 53.2491 38.2115 53.0529 38.0821 52.959C37.9527 52.8651 37.6611 52.5964 37.7422 52.1256L38.2613 49.0964C38.4732 47.8734 38.0679 46.6262 37.179 45.7615L34.9775 43.614C34.6348 43.2812 34.7116 42.8916 34.7613 42.7408C34.8111 42.5886 34.9761 42.2288 35.4497 42.1592L38.4931 41.7169C39.7204 41.5391 40.7799 40.7683 41.3289 39.6562Z" fill="#844C0D"/>
</svg>
