<svg width="116" height="116" viewBox="0 0 116 116" fill="none" xmlns="http://www.w3.org/2000/svg">
<circle cx="58" cy="58" r="58" fill="#FFDDB6"/>
<path d="M78.6492 29.7383H54.5936C50.8383 29.7383 47.7832 32.7927 47.7832 36.5493V48.6438H36.3489C32.5961 48.6445 29.543 51.6989 29.543 55.4517V70.5746C29.543 74.3274 32.5961 77.3825 36.3489 77.3825H37.4145V82.0922C37.4145 83.3713 38.1427 84.4858 39.315 84.996C39.723 85.1739 40.1551 85.261 40.5833 85.261C41.37 85.261 42.1465 84.9687 42.7507 84.4083L50.2302 77.3825H60.4115C64.1656 77.3825 67.2194 74.328 67.2194 70.5746V60.7663L72.257 65.4856C72.8555 66.0498 73.6333 66.3446 74.4218 66.3446C74.8456 66.3446 75.2739 66.2576 75.6787 66.0828C76.8364 65.5828 77.5849 64.4416 77.5849 63.179V58.4826H78.6499C82.4046 58.4833 85.4596 55.4282 85.4596 51.6722V36.5493C85.4596 32.7934 82.4046 29.7383 78.6492 29.7383ZM60.4115 73.9449H49.5503C49.1132 73.9449 48.6919 74.1126 48.3735 74.4113L40.8521 81.4777V75.6637C40.8521 74.7137 40.0826 73.9449 39.1333 73.9449H36.3489C34.4916 73.9449 32.9806 72.4345 32.9806 70.5746V55.4517C32.9806 53.5918 34.4916 52.0814 36.3489 52.0814H47.8042C48.0177 55.6468 50.9768 58.4833 54.5936 58.4833H63.7811V70.5746C63.7818 72.4345 62.2695 73.9449 60.4115 73.9449ZM82.022 51.6722C82.022 53.5321 80.5091 55.0457 78.6492 55.0457H75.8655C74.9162 55.0457 74.1467 55.8145 74.1467 56.7645V62.5487C74.1467 62.5487 66.6996 55.5597 66.6856 55.5464L66.65 55.5127L66.6456 55.5178L66.6367 55.5095C66.3183 55.2109 65.8977 55.0463 65.4612 55.0463H54.5936C52.7338 55.0463 51.2208 53.5321 51.2208 51.6729V51.6697H51.2336L51.2208 36.5506C51.2208 34.6907 52.7338 33.1772 54.5936 33.1772H78.6492C80.5091 33.1772 82.022 34.6914 82.022 36.5506V51.6722Z" fill="#844C0D"/>
<path d="M73.4953 38.8486H59.7461C58.7968 38.8486 58.0273 39.6175 58.0273 40.5674C58.0273 41.5174 58.7968 42.2862 59.7461 42.2862H73.4959C74.4452 42.2862 75.2147 41.5174 75.2147 40.5674C75.2147 39.6175 74.4446 38.8486 73.4953 38.8486Z" fill="#844C0D"/>
<path d="M73.4953 45.7236H59.7461C58.7968 45.7236 58.0273 46.4925 58.0273 47.4424C58.0273 48.3924 58.7968 49.1612 59.7461 49.1612H73.4959C74.4452 49.1612 75.2147 48.3924 75.2147 47.4424C75.2147 46.4925 74.4446 45.7236 73.4953 45.7236Z" fill="#844C0D"/>
<path d="M41.5226 61.3363C41.3168 61.4036 41.1446 61.5409 40.973 61.6787C40.6635 62.0212 40.457 62.4711 40.457 62.9172C40.457 63.3632 40.6629 63.8099 40.973 64.1187C41.3168 64.4612 41.7291 64.636 42.1758 64.636C42.416 64.636 42.6575 64.5654 42.8634 64.4981C43.0699 64.4276 43.2414 64.2897 43.413 64.1187C43.7224 63.8099 43.9289 63.3632 43.9289 62.9172C43.9289 62.4711 43.7224 62.0206 43.413 61.6787C42.932 61.2327 42.1758 61.0611 41.5226 61.3363Z" fill="#844C0D"/>
<path d="M49.7366 61.3364C49.0834 61.0613 48.3273 61.2322 47.8462 61.6789C47.5368 62.0214 47.3652 62.4712 47.3652 62.9173C47.3652 63.3634 47.5368 63.8101 47.8462 64.1189C48.0178 64.2898 48.19 64.4277 48.3959 64.4982C48.6367 64.5656 48.8426 64.6361 49.0834 64.6361C49.5307 64.6361 49.9431 64.4614 50.2869 64.1189C50.5963 63.8101 50.8028 63.3634 50.8028 62.9173C50.8028 62.4712 50.5963 62.0207 50.2869 61.6789C50.1147 61.5416 49.9431 61.4037 49.7366 61.3364Z" fill="#844C0D"/>
<path d="M56.6114 61.3361C56.199 61.1614 55.7174 61.1614 55.2707 61.3361C55.0648 61.4035 54.8926 61.5407 54.721 61.6786C54.4116 62.0211 54.2051 62.471 54.2051 62.9171C54.2051 63.3631 54.411 63.8098 54.721 64.1186C55.0648 64.4611 55.4772 64.6359 55.9245 64.6359C56.1647 64.6359 56.4055 64.5653 56.612 64.498C56.8185 64.4274 56.9901 64.2896 57.1623 64.1186C57.4718 63.8098 57.6433 63.3631 57.6433 62.9171C57.6433 62.471 57.4711 62.0205 57.1623 61.6786C56.9895 61.5414 56.8179 61.4035 56.6114 61.3361Z" fill="#844C0D"/>
<path d="M38.7559 44.0055H42.1935C43.1428 44.0055 43.9123 43.2366 43.9123 42.2867C43.9123 41.3367 43.1428 40.5679 42.1935 40.5679H38.7559C37.8066 40.5679 37.0371 41.3367 37.0371 42.2867C37.0365 43.2366 37.806 44.0055 38.7559 44.0055Z" fill="#844C0D"/>
<path d="M76.5666 71.5044H73.129C72.1796 71.5044 71.4102 72.2732 71.4102 73.2232C71.4102 74.1731 72.1796 74.942 73.129 74.942H76.5666C77.5159 74.942 78.2854 74.1731 78.2854 73.2232C78.2854 72.2732 77.5159 71.5044 76.5666 71.5044Z" fill="#844C0D"/>
</svg>
