<svg width="116" height="116" viewBox="0 0 116 116" fill="none" xmlns="http://www.w3.org/2000/svg">
<circle cx="58" cy="58" r="58" fill="#E0AF04"/>
<path d="M78.6495 29.7384H54.5939C50.8386 29.7384 47.7835 32.7929 47.7835 36.5494V48.644H36.3491C32.5964 48.6446 29.5432 51.699 29.5432 55.4518V70.5747C29.5432 74.3275 32.5964 77.3826 36.3491 77.3826H37.4147V82.0923C37.4147 83.3714 38.1429 84.4859 39.3153 84.9961C39.7232 85.1741 40.1553 85.2611 40.5836 85.2611C41.3702 85.2611 42.1467 84.9688 42.751 84.4084L50.2305 77.3826H60.4117C64.1658 77.3826 67.2196 74.3281 67.2196 70.5747V60.7664L72.2572 65.4857C72.8557 66.0499 73.6335 66.3448 74.422 66.3448C74.8459 66.3448 75.2741 66.2577 75.6789 66.083C76.8366 65.5829 77.5852 64.4417 77.5852 63.1791V58.4827H78.6501C82.4048 58.4834 85.4599 55.4283 85.4599 51.6723V36.5494C85.4599 32.7935 82.4048 29.7384 78.6495 29.7384ZM60.4117 73.945H49.5506C49.1134 73.945 48.6921 74.1127 48.3738 74.4114L40.8523 81.4778V75.6638C40.8523 74.7138 40.0829 73.945 39.1335 73.945H36.3491C34.4918 73.945 32.9808 72.4346 32.9808 70.5747V55.4518C32.9808 53.5919 34.4918 52.0816 36.3491 52.0816H47.8044C48.0179 55.6469 50.9771 58.4834 54.5939 58.4834H63.7814V70.5747C63.782 72.4346 62.2697 73.945 60.4117 73.945ZM82.0223 51.6723C82.0223 53.5322 80.5093 55.0458 78.6495 55.0458H75.8657C74.9164 55.0458 74.1469 55.8146 74.1469 56.7646V62.5488C74.1469 62.5488 66.6998 55.5598 66.6858 55.5465L66.6503 55.5128L66.6458 55.5179L66.6369 55.5096C66.3186 55.211 65.8979 55.0464 65.4614 55.0464H54.5939C52.734 55.0464 51.2211 53.5322 51.2211 51.673V51.6698H51.2338L51.2211 36.5507C51.2211 34.6908 52.734 33.1773 54.5939 33.1773H78.6495C80.5093 33.1773 82.0223 34.6915 82.0223 36.5507V51.6723Z" fill="#844C0D"/>
<path d="M73.4962 38.849H59.7471C58.7978 38.849 58.0283 39.6179 58.0283 40.5678C58.0283 41.5177 58.7978 42.2866 59.7471 42.2866H73.4969C74.4462 42.2866 75.2157 41.5177 75.2157 40.5678C75.2157 39.6179 74.4455 38.849 73.4962 38.849Z" fill="#844C0D"/>
<path d="M73.4962 45.7236H59.7471C58.7978 45.7236 58.0283 46.4924 58.0283 47.4424C58.0283 48.3923 58.7978 49.1612 59.7471 49.1612H73.4969C74.4462 49.1612 75.2157 48.3923 75.2157 47.4424C75.2157 46.4924 74.4455 45.7236 73.4962 45.7236Z" fill="#844C0D"/>
<path d="M41.522 61.3364C41.3162 61.4038 41.144 61.541 40.9724 61.6789C40.6629 62.0214 40.4564 62.4713 40.4564 62.9174C40.4564 63.3634 40.6623 63.8101 40.9724 64.1189C41.3162 64.4614 41.7285 64.6362 42.1752 64.6362C42.4154 64.6362 42.6569 64.5656 42.8628 64.4983C43.0693 64.4277 43.2408 64.2899 43.4124 64.1189C43.7218 63.8101 43.9284 63.3634 43.9284 62.9174C43.9284 62.4713 43.7218 62.0208 43.4124 61.6789C42.9314 61.2329 42.1752 61.0613 41.522 61.3364Z" fill="#844C0D"/>
<path d="M49.7373 61.3364C49.0841 61.0613 48.3279 61.2322 47.8469 61.6789C47.5375 62.0214 47.3659 62.4712 47.3659 62.9173C47.3659 63.3634 47.5375 63.8101 47.8469 64.1189C48.0185 64.2898 48.1907 64.4277 48.3965 64.4982C48.6374 64.5656 48.8432 64.6361 49.0841 64.6361C49.5314 64.6361 49.9438 64.4614 50.2875 64.1189C50.597 63.8101 50.8035 63.3634 50.8035 62.9173C50.8035 62.4712 50.597 62.0207 50.2875 61.6789C50.1153 61.5416 49.9438 61.4037 49.7373 61.3364Z" fill="#844C0D"/>
<path d="M56.6126 61.3364C56.2002 61.1616 55.7185 61.1616 55.2718 61.3364C55.066 61.4037 54.8938 61.541 54.7222 61.6789C54.4128 62.0214 54.2062 62.4712 54.2062 62.9173C54.2062 63.3634 54.4121 63.8101 54.7222 64.1189C55.066 64.4614 55.4783 64.6361 55.9257 64.6361C56.1659 64.6361 56.4067 64.5656 56.6132 64.4982C56.8197 64.4277 56.9913 64.2898 57.1635 64.1189C57.4729 63.8101 57.6445 63.3634 57.6445 62.9173C57.6445 62.4712 57.4723 62.0207 57.1635 61.6789C56.9906 61.5416 56.8191 61.4037 56.6126 61.3364Z" fill="#844C0D"/>
<path d="M38.7567 44.0054H42.1943C43.1436 44.0054 43.9131 43.2366 43.9131 42.2866C43.9131 41.3367 43.1436 40.5678 42.1943 40.5678H38.7567C37.8074 40.5678 37.0379 41.3367 37.0379 42.2866C37.0373 43.2366 37.8067 44.0054 38.7567 44.0054Z" fill="#844C0D"/>
<path d="M76.5678 71.5043H73.1302C72.1808 71.5043 71.4114 72.2732 71.4114 73.2231C71.4114 74.1731 72.1808 74.9419 73.1302 74.9419H76.5678C77.5171 74.9419 78.2866 74.1731 78.2866 73.2231C78.2866 72.2732 77.5171 71.5043 76.5678 71.5043Z" fill="#844C0D"/>
</svg>
