<svg width="116" height="116" viewBox="0 0 116 116" fill="none" xmlns="http://www.w3.org/2000/svg">
<circle cx="58" cy="58" r="58" fill="#FFDDB6"/>
<path d="M48.0007 54.203H85.9692C87.0828 54.203 88.0872 54.6571 88.8169 55.3863V55.3932C89.5461 56.1229 90.0006 57.1273 90.0006 58.234V83.969C90.0006 85.0753 89.5461 86.0866 88.8169 86.8158C88.0872 87.5459 87.0828 87.9995 85.9692 87.9995H48.0007C46.894 87.9995 45.8826 87.5459 45.1534 86.8158C44.4238 86.0866 43.9697 85.0817 43.9697 83.969V58.234C43.9697 57.1273 44.4238 56.116 45.1534 55.3863C45.8831 54.6571 46.894 54.203 48.0007 54.203ZM85.9692 56.0459H48.0007C47.3992 56.0459 46.8552 56.2953 46.4588 56.6917C46.062 57.0885 45.8126 57.6325 45.8126 58.234V83.969C45.8126 84.5705 46.062 85.1204 46.4588 85.5173C46.8548 85.9133 47.3992 86.1566 48.0007 86.1566H85.9692C86.5707 86.1566 87.1206 85.9137 87.5175 85.5173C87.9139 85.1204 88.1577 84.5701 88.1577 83.969V58.234C88.1577 57.6325 87.9143 57.0826 87.5175 56.6857V56.6921C87.1206 56.2957 86.5707 56.0459 85.9692 56.0459Z" fill="#844C0D"/>
<path d="M59.2873 46.5186H74.6884C75.5651 46.5186 76.3708 46.8768 76.947 47.4589C77.5227 48.0411 77.8878 48.8413 77.8878 49.7176V55.124V56.0454H76.9659H73.076H72.155V55.124V52.1301H61.8211V55.1244V56.0459H60.8992H57.0093H56.0879V55.1244V49.7176C56.0879 48.8413 56.446 48.0346 57.0218 47.4589C57.6039 46.8768 58.4046 46.5186 59.2873 46.5186ZM74.6879 48.3615H59.2873C58.9158 48.3615 58.577 48.5145 58.3272 48.7643C58.0842 49.0077 57.9312 49.3465 57.9312 49.7176V54.2025H59.9783V51.2083V50.2873H60.8997H73.076H73.9979V51.2083V54.203H76.045V49.718C76.045 49.3465 75.8915 49.0077 75.6485 48.7648H75.6416C75.3982 48.515 75.0595 48.3615 74.6879 48.3615Z" fill="#844C0D"/>
<path d="M41.1795 79.0102C41.6852 79.0102 42.1009 79.419 42.1009 79.9312C42.1009 80.4364 41.6852 80.8521 41.1795 80.8521H33.7643C33.0093 80.8521 32.3183 80.5387 31.8126 80.0399V80.0335C31.3134 79.5343 31 78.8438 31 78.0819V31.7638C31 31.0088 31.3134 30.3178 31.8126 29.8126C32.3114 29.3134 33.0023 29 33.7643 29H59.6837C60.0805 29 60.4516 29.077 60.7978 29.2305C61.137 29.384 61.444 29.6075 61.7192 29.8956L68.6744 37.3371C68.6933 37.3565 68.7062 37.3754 68.7256 37.3947C68.9487 37.6441 69.1091 37.9197 69.2243 38.2074C69.3395 38.5213 69.4036 38.8536 69.4036 39.2058V43.723C69.4036 44.2347 68.9878 44.6445 68.4822 44.6445C67.9705 44.6445 67.5543 44.2347 67.5543 43.723V39.2058C67.5543 39.0776 67.5419 38.9629 67.5031 38.8601C67.4649 38.7771 67.4202 38.7001 67.3625 38.6231C67.3496 38.6107 67.3363 38.6042 67.3238 38.5913L60.3751 31.1498C60.2787 31.0475 60.1704 30.9705 60.0552 30.9129C59.9469 30.8682 59.8252 30.8429 59.6841 30.8429H33.7643C33.5149 30.8429 33.2844 30.9452 33.118 31.118L33.1116 31.1116C32.9452 31.2775 32.8429 31.5145 32.8429 31.7638V78.0819C32.8429 78.3377 32.9452 78.5681 33.1116 78.7346L33.118 78.741C33.2844 78.9014 33.5145 79.0102 33.7643 79.0102H41.1795Z" fill="#844C0D"/>
<path d="M63.6452 70.9994L47.8347 67.9977C46.7663 67.7995 45.7803 67.3326 45.0709 66.6223C44.392 65.9442 43.9697 65.055 43.9697 63.9861H45.8126C45.8126 64.53 46.0306 64.9781 46.3759 65.3238C46.8174 65.7584 47.4637 66.0594 48.174 66.1936L63.9844 69.1943L63.6452 70.9994ZM90.0001 63.9861C90.0001 65.0546 89.5779 65.9378 88.8994 66.6158V66.6223C88.1891 67.3326 87.204 67.8 86.142 67.9977L70.3312 71.0243L69.9859 69.2201L85.7963 66.1936C86.5131 66.053 87.1593 65.7589 87.6005 65.3238C87.9462 64.9781 88.1573 64.5296 88.1573 63.9861H90.0001Z" fill="#844C0D"/>
<path d="M51.8115 35.9141C52.3232 35.9141 52.733 36.3239 52.733 36.8355C52.733 37.3412 52.3232 37.757 51.8115 37.757H38.9512C38.4391 37.757 38.0293 37.3412 38.0293 36.8355C38.0293 36.3239 38.4391 35.9141 38.9512 35.9141H51.8115Z" fill="#844C0D"/>
<path d="M45.752 48.5882C46.2576 48.5882 46.6734 49.0035 46.6734 49.5097C46.6734 50.0213 46.2576 50.4306 45.752 50.4306H38.9507C38.4391 50.4306 38.0293 50.0213 38.0293 49.5097C38.0293 49.004 38.4391 48.5882 38.9507 48.5882H45.752Z" fill="#844C0D"/>
<path d="M51.8115 42.2512C52.3232 42.2512 52.733 42.6609 52.733 43.1726C52.733 43.6778 52.3232 44.094 51.8115 44.094H38.9512C38.4391 44.094 38.0293 43.6782 38.0293 43.1726C38.0293 42.6609 38.4391 42.2512 38.9512 42.2512H51.8115Z" fill="#844C0D"/>
<path d="M60.6304 29.3387L69.0182 38.4438C69.3575 38.8148 69.3386 39.397 68.9606 39.7423C68.7877 39.9022 68.5646 39.9856 68.3401 39.9856H62.5627C61.5776 39.9856 60.688 39.5823 60.0418 38.9365C60.0229 38.9172 60.003 38.8983 59.9841 38.8789C59.3697 38.2387 58.9922 37.3689 58.9922 36.4152V29.9214C58.9922 29.4157 59.402 28.9999 59.9141 28.9999C60.2012 28.9999 60.4575 29.1341 60.6304 29.3387ZM66.2419 38.1432L60.835 32.2819V36.4156C60.835 36.8761 61.0144 37.2919 61.3024 37.5989C61.3149 37.6118 61.3283 37.6247 61.3412 37.6376C61.6546 37.951 62.0893 38.1428 62.5627 38.1428L66.2419 38.1432Z" fill="#844C0D"/>
<path d="M63.9453 64.0124H70.0298C70.5101 64.0124 70.9447 64.2106 71.2586 64.5236L71.2651 64.53C71.579 64.8444 71.7768 65.2855 71.7768 65.7653V72.5094C71.7768 73.8273 71.2398 75.0239 70.369 75.8937C69.5057 76.7644 68.3026 77.3019 66.9843 77.3019C65.666 77.3019 64.4694 76.7644 63.5996 75.8937C62.7353 75.0239 62.1914 73.8277 62.1914 72.5094V65.7653C62.1914 65.2855 62.3901 64.8435 62.71 64.53V64.5236C63.0299 64.2106 63.4655 64.0124 63.9453 64.0124ZM69.9344 65.8552H64.0412V72.5094C64.0412 73.3152 64.3675 74.0577 64.905 74.5892C65.4424 75.1267 66.1786 75.459 66.9843 75.459C67.7974 75.459 68.5326 75.1267 69.0701 74.5892C69.6011 74.0582 69.9344 73.3152 69.9344 72.5094V65.8552Z" fill="#844C0D"/>
<path d="M66.9839 73.3087C67.4928 73.3087 67.9054 72.8962 67.9054 72.3873C67.9054 71.8784 67.4928 71.4659 66.9839 71.4659C66.475 71.4659 66.0625 71.8784 66.0625 72.3873C66.0625 72.8962 66.475 73.3087 66.9839 73.3087Z" fill="#844C0D"/>
</svg>
