<svg width="116" height="116" viewBox="0 0 116 116" fill="none" xmlns="http://www.w3.org/2000/svg">
<circle cx="58" cy="58" r="58" fill="#E0AF04"/>
<path d="M45.0007 54.2031H82.9692C84.0828 54.2031 85.0872 54.6572 85.8169 55.3864V55.3933C86.5461 56.123 87.0006 57.1274 87.0006 58.2341V83.9691C87.0006 85.0754 86.5461 86.0867 85.8169 86.8159C85.0872 87.546 84.0828 87.9996 82.9692 87.9996H45.0007C43.894 87.9996 42.8826 87.546 42.1534 86.8159C41.4238 86.0867 40.9697 85.0818 40.9697 83.9691V58.2341C40.9697 57.1274 41.4238 56.116 42.1534 55.3864C42.8831 54.6572 43.894 54.2031 45.0007 54.2031ZM82.9692 56.046H45.0007C44.3992 56.046 43.8552 56.2954 43.4588 56.6918C43.062 57.0886 42.8126 57.6326 42.8126 58.2341V83.9691C42.8126 84.5706 43.062 85.1205 43.4588 85.5174C43.8548 85.9134 44.3992 86.1567 45.0007 86.1567H82.9692C83.5707 86.1567 84.1206 85.9138 84.5175 85.5174C84.9139 85.1205 85.1577 84.5702 85.1577 83.9691V58.2341C85.1577 57.6326 84.9143 57.0826 84.5175 56.6858V56.6922C84.1206 56.2958 83.5707 56.046 82.9692 56.046Z" fill="#844C0D"/>
<path d="M56.2873 46.5186H71.6884C72.5651 46.5186 73.3708 46.8767 73.947 47.4589C74.5227 48.0411 74.8878 48.8413 74.8878 49.7175V55.1239V56.0454H73.9659H70.076H69.155V55.1239V52.1301H58.8211V55.1244V56.0458H57.8992H54.0093H53.0879V55.1244V49.7175C53.0879 48.8413 53.446 48.0346 54.0218 47.4589C54.6039 46.8767 55.4046 46.5186 56.2873 46.5186ZM71.6879 48.3614H56.2873C55.9158 48.3614 55.577 48.5144 55.3272 48.7643C55.0842 49.0077 54.9312 49.3464 54.9312 49.7175V54.2025H56.9783V51.2082V50.2872H57.8997H70.076H70.9979V51.2082V54.203H73.045V49.718C73.045 49.3464 72.8915 49.0077 72.6485 48.7647H72.6416C72.3982 48.5149 72.0595 48.3614 71.6879 48.3614Z" fill="#844C0D"/>
<path d="M38.1795 79.0102C38.6852 79.0102 39.1009 79.419 39.1009 79.9312C39.1009 80.4364 38.6852 80.8521 38.1795 80.8521H30.7643C30.0093 80.8521 29.3183 80.5387 28.8126 80.0399V80.0335C28.3134 79.5343 28 78.8438 28 78.0819V31.7638C28 31.0088 28.3134 30.3178 28.8126 29.8126C29.3114 29.3134 30.0023 29 30.7643 29H56.6837C57.0805 29 57.4516 29.077 57.7978 29.2305C58.137 29.384 58.444 29.6075 58.7192 29.8956L65.6744 37.3371C65.6933 37.3565 65.7062 37.3754 65.7256 37.3947C65.9487 37.6441 66.1091 37.9197 66.2243 38.2074C66.3395 38.5213 66.4036 38.8536 66.4036 39.2058V43.723C66.4036 44.2347 65.9878 44.6445 65.4822 44.6445C64.9705 44.6445 64.5543 44.2347 64.5543 43.723V39.2058C64.5543 39.0776 64.5419 38.9629 64.5031 38.8601C64.4649 38.7771 64.4202 38.7001 64.3625 38.6231C64.3496 38.6107 64.3363 38.6042 64.3238 38.5913L57.3751 31.1498C57.2787 31.0475 57.1704 30.9705 57.0552 30.9129C56.9469 30.8682 56.8252 30.8429 56.6841 30.8429H30.7643C30.5149 30.8429 30.2844 30.9452 30.118 31.118L30.1116 31.1116C29.9452 31.2775 29.8429 31.5145 29.8429 31.7638V78.0819C29.8429 78.3377 29.9452 78.5681 30.1116 78.7346L30.118 78.741C30.2844 78.9014 30.5145 79.0102 30.7643 79.0102H38.1795Z" fill="#844C0D"/>
<path d="M60.6452 70.9994L44.8347 67.9977C43.7663 67.7995 42.7803 67.3325 42.0709 66.6222C41.392 65.9442 40.9697 65.055 40.9697 63.9861H42.8126C42.8126 64.53 43.0306 64.978 43.3759 65.3237C43.8174 65.7584 44.4637 66.0594 45.174 66.1935L60.9844 69.1943L60.6452 70.9994ZM87.0001 63.9861C87.0001 65.0546 86.5779 65.9377 85.8994 66.6158V66.6222C85.1891 67.3325 84.204 67.7999 83.142 67.9977L67.3312 71.0242L66.9859 69.2201L82.7963 66.1935C83.5131 66.053 84.1593 65.7589 84.6005 65.3237C84.9462 64.978 85.1573 64.5295 85.1573 63.9861H87.0001Z" fill="#844C0D"/>
<path d="M48.8115 35.9141C49.3232 35.9141 49.733 36.3238 49.733 36.8355C49.733 37.3411 49.3232 37.7569 48.8115 37.7569H35.9512C35.4391 37.7569 35.0293 37.3411 35.0293 36.8355C35.0293 36.3238 35.4391 35.9141 35.9512 35.9141H48.8115Z" fill="#844C0D"/>
<path d="M42.752 48.5881C43.2576 48.5881 43.6734 49.0034 43.6734 49.5096C43.6734 50.0212 43.2576 50.4305 42.752 50.4305H35.9507C35.4391 50.4305 35.0293 50.0212 35.0293 49.5096C35.0293 49.0039 35.4391 48.5881 35.9507 48.5881H42.752Z" fill="#844C0D"/>
<path d="M48.8115 42.2512C49.3232 42.2512 49.733 42.661 49.733 43.1726C49.733 43.6778 49.3232 44.0941 48.8115 44.0941H35.9512C35.4391 44.0941 35.0293 43.6783 35.0293 43.1726C35.0293 42.661 35.4391 42.2512 35.9512 42.2512H48.8115Z" fill="#844C0D"/>
<path d="M57.6304 29.3388L66.0182 38.4438C66.3575 38.8149 66.3386 39.3971 65.9606 39.7423C65.7877 39.9023 65.5646 39.9857 65.3401 39.9857H59.5627C58.5776 39.9857 57.688 39.5824 57.0418 38.9366C57.0229 38.9172 57.003 38.8983 56.9841 38.879C56.3697 38.2387 55.9922 37.3689 55.9922 36.4152V29.9214C55.9922 29.4158 56.402 29 56.9141 29C57.2012 29 57.4575 29.1341 57.6304 29.3388ZM63.2419 38.1433L57.835 32.2819V36.4157C57.835 36.8762 58.0144 37.2919 58.3024 37.5989C58.3149 37.6118 58.3283 37.6247 58.3412 37.6376C58.6546 37.9511 59.0893 38.1428 59.5627 38.1428L63.2419 38.1433Z" fill="#844C0D"/>
<path d="M60.9453 64.0125H67.0298C67.5101 64.0125 67.9447 64.2107 68.2586 64.5236L68.2651 64.5301C68.579 64.8445 68.7768 65.2856 68.7768 65.7654V72.5095C68.7768 73.8273 68.2398 75.024 67.369 75.8938C66.5057 76.7645 65.3026 77.3019 63.9843 77.3019C62.666 77.3019 61.4694 76.7645 60.5996 75.8938C59.7353 75.024 59.1914 73.8278 59.1914 72.5095V65.7654C59.1914 65.2856 59.3901 64.8435 59.71 64.5301V64.5236C60.0299 64.2107 60.4655 64.0125 60.9453 64.0125ZM66.9344 65.8553H61.0412V72.5095C61.0412 73.3152 61.3675 74.0578 61.905 74.5893C62.4424 75.1267 63.1786 75.4591 63.9843 75.4591C64.7974 75.4591 65.5326 75.1267 66.0701 74.5893C66.6011 74.0583 66.9344 73.3152 66.9344 72.5095V65.8553Z" fill="#844C0D"/>
<path d="M63.9839 73.3087C64.4928 73.3087 64.9054 72.8961 64.9054 72.3872C64.9054 71.8784 64.4928 71.4658 63.9839 71.4658C63.475 71.4658 63.0625 71.8784 63.0625 72.3872C63.0625 72.8961 63.475 73.3087 63.9839 73.3087Z" fill="#844C0D"/>
</svg>
