<svg width="116" height="116" viewBox="0 0 116 116" fill="none" xmlns="http://www.w3.org/2000/svg">
<circle cx="58" cy="58" r="58" fill="#E0AF04"/>
<g clip-path="url(#clip0_1735_173)">
<path fill-rule="evenodd" clip-rule="evenodd" d="M47.1269 31.1425C47.1269 31.0953 47.1652 31.057 47.2125 31.057H70.995C71.0422 31.057 71.0805 31.0953 71.0805 31.1425V55.3536C71.0805 56.0163 71.6178 56.5536 72.2805 56.5536C72.9433 56.5536 73.4805 56.0163 73.4805 55.3536V31.1425C73.4805 29.7698 72.3677 28.657 70.995 28.657H47.2125C45.8397 28.657 44.7269 29.7698 44.7269 31.1425V42.2839C44.7269 42.3311 44.6886 42.3694 44.6414 42.3694H35.6675L43.3656 34.3292C43.8239 33.8505 43.8074 33.0909 43.3287 32.6326C42.85 32.1743 42.0904 32.1908 41.632 32.6695L31.9905 42.7396L31.6572 43.0876V43.5694V79.3504C31.6572 80.7231 32.77 81.8359 34.1428 81.8359H53.4259C54.0887 81.8359 54.6259 81.2987 54.6259 80.6359C54.6259 79.9732 54.0887 79.4359 53.4259 79.4359H34.1428C34.0955 79.4359 34.0572 79.3976 34.0572 79.3504V44.7694H44.6414C46.0141 44.7694 47.1269 43.6566 47.1269 42.2839V31.1425ZM51.9273 41.5124C51.2646 41.5124 50.7273 42.0497 50.7273 42.7124C50.7273 43.3751 51.2646 43.9124 51.9273 43.9124H65.8541C66.5168 43.9124 67.0541 43.3751 67.0541 42.7124C67.0541 42.0497 66.5168 41.5124 65.8541 41.5124H51.9273ZM38.5142 49.5686C38.5142 48.9059 39.0514 48.3686 39.7142 48.3686H66.0678C66.7306 48.3686 67.2678 48.9059 67.2678 49.5686C67.2678 50.2314 66.7306 50.7686 66.0678 50.7686H39.7142C39.0514 50.7686 38.5142 50.2314 38.5142 49.5686ZM39.7142 55.2249C39.0514 55.2249 38.5142 55.7621 38.5142 56.4249C38.5142 57.0876 39.0514 57.6249 39.7142 57.6249H60.7114C61.3741 57.6249 61.9114 57.0876 61.9114 56.4249C61.9114 55.7621 61.3741 55.2249 60.7114 55.2249H39.7142ZM38.9421 64.3524C38.9421 63.6896 39.4793 63.1524 40.1421 63.1524H55.7828C56.4456 63.1524 56.9828 63.6896 56.9828 64.3524C56.9828 65.0151 56.4456 65.5524 55.7828 65.5524H40.1421C39.4793 65.5524 38.9421 65.0151 38.9421 64.3524ZM39.9277 70.8657C39.2649 70.8657 38.7277 71.4029 38.7277 72.0657C38.7277 72.7284 39.2649 73.2657 39.9277 73.2657H51.4975C52.1603 73.2657 52.6975 72.7284 52.6975 72.0657C52.6975 71.4029 52.1603 70.8657 51.4975 70.8657H39.9277ZM70.6533 64.6153V82.4355H66.2826C65.6199 82.4355 65.0826 82.9728 65.0826 83.6355C65.0826 84.2983 65.6199 84.8355 66.2826 84.8355H71.8533H77.424C78.0867 84.8355 78.624 84.2983 78.624 83.6355C78.624 82.9728 78.0867 82.4355 77.424 82.4355H73.0533V64.4272C73.5906 64.1394 74.0301 63.6926 74.3089 63.1497C74.4136 63.1796 74.5242 63.1956 74.6385 63.1956H80.7587L76.3179 73.7425L75.6165 75.4082H77.4238H87.4939H89.2721L88.6067 73.7592L83.6788 61.5465L83.3758 60.7956H82.566H74.6385C74.5835 60.7956 74.5295 60.7992 74.4765 60.8064C74.0718 59.6284 72.9542 58.7817 71.6389 58.7817C70.3276 58.7817 69.2128 59.6232 68.805 60.7956H61.3548H60.545L60.242 61.5465L55.3141 73.7592L54.6487 75.4082H56.4269H66.497H68.3043L67.6029 73.7425L63.1621 63.1956H68.9929C69.3459 63.8547 69.938 64.3665 70.6533 64.6153ZM70.4503 62.272C70.6431 62.7386 71.1027 63.0669 71.6389 63.0669C72.3489 63.0669 72.9244 62.4913 72.9244 61.7813C72.9244 61.0714 72.3489 60.4958 71.6389 60.4958C71.0209 60.4958 70.5048 60.9319 70.3814 61.5131C70.4463 61.6607 70.4823 61.8239 70.4823 61.9956C70.4823 62.0907 70.4712 62.1833 70.4503 62.272ZM58.2051 73.0082L61.3784 65.1439L64.6897 73.0082H58.2051ZM82.5424 65.1439L85.7157 73.0082H79.2311L82.5424 65.1439ZM63.8932 80.653C63.129 80.8832 62.3164 80.9999 61.5 80.9999C60.6836 80.9999 59.871 80.8832 59.1068 80.653C58.343 80.4229 57.6332 80.0811 57.0227 79.6371C56.4122 79.1931 55.905 78.6494 55.5497 78.0256C55.1931 77.3993 55 76.7098 55 75.9999H57C57 76.3407 57.0915 76.6914 57.2876 77.0358C57.4851 77.3825 57.7881 77.7208 58.1991 78.0196C58.61 78.3185 59.1129 78.566 59.6837 78.738C60.2541 78.9098 60.8719 78.9999 61.5 78.9999C62.1281 78.9999 62.7459 78.9098 63.3163 78.738C63.8871 78.566 64.39 78.3185 64.8009 78.0196C65.2119 77.7208 65.5149 77.3825 65.7124 77.0358C65.9085 76.6914 66 76.3407 66 75.9999H68C68 76.7098 67.8069 77.3993 67.4503 78.0256C67.095 78.6494 66.5878 79.1931 65.9773 79.6371C65.3668 80.0811 64.657 80.4229 63.8932 80.653ZM82.3565 81.2851C83.1638 81.2851 83.9667 81.158 84.7208 80.9081C85.4748 80.6583 86.172 80.2882 86.7687 79.8109C87.3657 79.3333 87.8542 78.7544 88.1932 78.0996C88.5329 77.4435 88.7129 76.7292 88.7129 76H86.7129C86.7129 76.3961 86.6158 76.7963 86.4171 77.18C86.2178 77.565 85.9172 77.9309 85.5193 78.2491C85.1212 78.5676 84.6375 78.8288 84.0917 79.0097C83.5461 79.1905 82.956 79.2851 82.3565 79.2851C81.757 79.2851 81.1668 79.1905 80.6212 79.0097C80.0754 78.8288 79.5917 78.5676 79.1936 78.2491C78.7958 77.9309 78.4952 77.565 78.2958 77.18C78.0971 76.7963 78 76.3961 78 76H76C76 76.7292 76.1801 77.4435 76.5197 78.0996C76.8588 78.7544 77.3473 79.3333 77.9442 79.8109C78.5409 80.2882 79.2381 80.6583 79.9921 80.9081C80.7462 81.158 81.5491 81.2851 82.3565 81.2851Z" fill="#844C0D"/>
</g>
<defs>
<clipPath id="clip0_1735_173">
<rect width="62" height="62" fill="white" transform="translate(27 27)"/>
</clipPath>
</defs>
</svg>
