<svg width="116" height="116" viewBox="0 0 116 116" fill="none" xmlns="http://www.w3.org/2000/svg">
<circle cx="58" cy="58" r="58" fill="#FFDDB6"/>
<g clip-path="url(#clip0_1115_151)">
<path fill-rule="evenodd" clip-rule="evenodd" d="M47.1269 33.1426C47.1269 33.0953 47.1652 33.057 47.2125 33.057H70.995C71.0422 33.057 71.0805 33.0953 71.0805 33.1426V57.3536C71.0805 58.0164 71.6178 58.5536 72.2805 58.5536C72.9433 58.5536 73.4805 58.0164 73.4805 57.3536V33.1426C73.4805 31.7698 72.3677 30.657 70.995 30.657H47.2125C45.8397 30.657 44.7269 31.7698 44.7269 33.1426V44.2839C44.7269 44.3312 44.6886 44.3695 44.6414 44.3695H35.6675L43.3656 36.3293C43.8239 35.8506 43.8074 35.091 43.3287 34.6326C42.85 34.1743 42.0904 34.1908 41.632 34.6695L31.9905 44.7396L31.6572 45.0876V45.5695V81.3504C31.6572 82.7232 32.77 83.836 34.1428 83.836H53.4259C54.0887 83.836 54.6259 83.2987 54.6259 82.636C54.6259 81.9732 54.0887 81.436 53.4259 81.436H34.1428C34.0955 81.436 34.0572 81.3977 34.0572 81.3504V46.7695H44.6414C46.0141 46.7695 47.1269 45.6567 47.1269 44.2839V33.1426ZM51.9273 43.5124C51.2646 43.5124 50.7273 44.0497 50.7273 44.7124C50.7273 45.3752 51.2646 45.9124 51.9273 45.9124H65.8541C66.5168 45.9124 67.0541 45.3752 67.0541 44.7124C67.0541 44.0497 66.5168 43.5124 65.8541 43.5124H51.9273ZM38.5142 51.5687C38.5142 50.9059 39.0514 50.3687 39.7142 50.3687H66.0678C66.7306 50.3687 67.2678 50.9059 67.2678 51.5687C67.2678 52.2314 66.7306 52.7687 66.0678 52.7687H39.7142C39.0514 52.7687 38.5142 52.2314 38.5142 51.5687ZM39.7142 57.2249C39.0514 57.2249 38.5142 57.7622 38.5142 58.4249C38.5142 59.0877 39.0514 59.6249 39.7142 59.6249H60.7114C61.3741 59.6249 61.9114 59.0877 61.9114 58.4249C61.9114 57.7622 61.3741 57.2249 60.7114 57.2249H39.7142ZM38.9421 66.3524C38.9421 65.6897 39.4793 65.1524 40.1421 65.1524H55.7828C56.4456 65.1524 56.9828 65.6897 56.9828 66.3524C56.9828 67.0152 56.4456 67.5524 55.7828 67.5524H40.1421C39.4793 67.5524 38.9421 67.0152 38.9421 66.3524ZM39.9277 72.8657C39.2649 72.8657 38.7277 73.403 38.7277 74.0657C38.7277 74.7284 39.2649 75.2657 39.9277 75.2657H51.4975C52.1603 75.2657 52.6975 74.7284 52.6975 74.0657C52.6975 73.403 52.1603 72.8657 51.4975 72.8657H39.9277ZM70.6533 66.6153V84.4356H66.2826C65.6199 84.4356 65.0826 84.9728 65.0826 85.6356C65.0826 86.2983 65.6199 86.8356 66.2826 86.8356H71.8533H77.424C78.0867 86.8356 78.624 86.2983 78.624 85.6356C78.624 84.9728 78.0867 84.4356 77.424 84.4356H73.0533V66.4272C73.5906 66.1394 74.0301 65.6926 74.3089 65.1498C74.4136 65.1796 74.5242 65.1956 74.6385 65.1956H80.7587L76.3179 75.7426L75.6165 77.4083H77.4238H87.4939H89.2721L88.6067 75.7592L83.6788 63.5466L83.3758 62.7956H82.566H74.6385C74.5835 62.7956 74.5295 62.7993 74.4765 62.8064C74.0718 61.6284 72.9542 60.7818 71.6389 60.7818C70.3276 60.7818 69.2128 61.6232 68.805 62.7956H61.3548H60.545L60.242 63.5466L55.3141 75.7592L54.6487 77.4083H56.4269H66.497H68.3043L67.6029 75.7426L63.1621 65.1956H68.9929C69.3459 65.8547 69.938 66.3666 70.6533 66.6153ZM70.4503 64.272C70.6431 64.7386 71.1027 65.0669 71.6389 65.0669C72.3489 65.0669 72.9244 64.4914 72.9244 63.7814C72.9244 63.0714 72.3489 62.4958 71.6389 62.4958C71.0209 62.4958 70.5048 62.9319 70.3814 63.5131C70.4463 63.6608 70.4823 63.824 70.4823 63.9956C70.4823 64.0907 70.4712 64.1833 70.4503 64.272ZM58.2051 75.0083L61.3784 67.144L64.6897 75.0083H58.2051ZM82.5424 67.144L85.7157 75.0083H79.2311L82.5424 67.144ZM63.8932 82.653C63.129 82.8832 62.3164 83 61.5 83C60.6836 83 59.871 82.8832 59.1068 82.653C58.343 82.4229 57.6332 82.0811 57.0227 81.6371C56.4122 81.1931 55.905 80.6495 55.5497 80.0256C55.1931 79.3994 55 78.7098 55 78H57C57 78.3407 57.0915 78.6914 57.2876 79.0358C57.4851 79.3826 57.7881 79.7208 58.1991 80.0197C58.61 80.3186 59.1129 80.566 59.6837 80.738C60.2541 80.9098 60.8719 81 61.5 81C62.1281 81 62.7459 80.9098 63.3163 80.738C63.8871 80.566 64.39 80.3186 64.8009 80.0197C65.2119 79.7208 65.5149 79.3826 65.7124 79.0358C65.9085 78.6914 66 78.3407 66 78H68C68 78.7098 67.8069 79.3994 67.4503 80.0256C67.095 80.6495 66.5878 81.1931 65.9773 81.6371C65.3668 82.0811 64.657 82.4229 63.8932 82.653ZM82.3565 83.2851C83.1638 83.2851 83.9667 83.1581 84.7208 82.9082C85.4748 82.6584 86.172 82.2883 86.7687 81.8109C87.3657 81.3334 87.8542 80.7544 88.1932 80.0996C88.5329 79.4436 88.7129 78.7293 88.7129 78H86.7129C86.7129 78.3962 86.6158 78.7963 86.4171 79.1801C86.2178 79.5651 85.9172 79.9309 85.5193 80.2492C85.1212 80.5677 84.6375 80.8289 84.0917 81.0097C83.5461 81.1905 82.956 81.2851 82.3565 81.2851C81.757 81.2851 81.1668 81.1905 80.6212 81.0097C80.0754 80.8289 79.5917 80.5677 79.1936 80.2492C78.7958 79.9309 78.4952 79.5651 78.2958 79.1801C78.0971 78.7963 78 78.3962 78 78H76C76 78.7293 76.1801 79.4436 76.5197 80.0996C76.8588 80.7544 77.3473 81.3334 77.9442 81.8109C78.5409 82.2883 79.2381 82.6584 79.9921 82.9082C80.7462 83.1581 81.5491 83.2851 82.3565 83.2851Z" fill="#844C0D"/>
</g>
<defs>
<clipPath id="clip0_1115_151">
<rect width="62" height="62" fill="white" transform="translate(27 29)"/>
</clipPath>
</defs>
</svg>
