<svg width="148" height="148" viewBox="0 0 148 148" fill="none" xmlns="http://www.w3.org/2000/svg">
<circle cx="74" cy="74" r="74" fill="url(#paint0_linear_1153_21)"/>
<g clip-path="url(#clip0_1153_21)">
<path d="M95.6666 113H52.3333C47.7037 113 43.351 111.197 40.0769 107.923C36.803 104.649 35 100.296 35 95.6666V91.3331C35 88.9397 36.94 86.9995 39.3334 86.9995C41.7267 86.9995 43.6667 88.9397 43.6667 91.3331V95.6666C43.6667 97.9815 44.5683 100.158 46.2049 101.795C47.842 103.432 50.0183 104.333 52.3333 104.333H95.6666C97.9814 104.333 100.158 103.432 101.795 101.795C103.432 100.158 104.333 97.9812 104.333 95.6666V91.3331C104.333 88.9397 106.273 86.9995 108.666 86.9995C111.06 86.9995 113 88.9397 113 91.3331V95.6666C113 100.296 111.197 104.649 107.923 107.923C104.649 111.197 100.296 113 95.6666 113ZM73.9999 95.6664C73.4005 95.6664 72.8298 95.5447 72.3106 95.3248C71.8262 95.1201 71.371 94.8228 70.9728 94.4339C70.9726 94.4338 70.9726 94.4336 70.9725 94.4336C70.9696 94.4309 70.9667 94.428 70.9638 94.4252C70.9631 94.4245 70.9622 94.4235 70.9614 94.4227C70.959 94.4206 70.9569 94.4183 70.9546 94.4161C70.9531 94.4146 70.9517 94.4133 70.9502 94.4117C70.9487 94.4102 70.9467 94.4082 70.9454 94.407C70.9423 94.404 70.939 94.4006 70.936 94.3976L53.6025 77.064C51.9103 75.3718 51.9103 72.628 53.6025 70.9357C55.2947 69.2435 58.0387 69.2433 59.7309 70.9357L69.6667 80.8715V39.3334C69.6666 36.94 71.6066 35 73.9999 35C76.3933 35 78.3334 36.94 78.3334 39.3334V80.8714L88.2691 70.9357C89.9612 69.2435 92.7054 69.2435 94.3974 70.9357C96.0896 72.6279 96.0896 75.3718 94.3974 77.064L77.064 94.3973C77.061 94.4003 77.0577 94.4037 77.0546 94.4067C77.053 94.4082 77.0512 94.4102 77.0498 94.4114C77.0483 94.413 77.0469 94.4142 77.0454 94.4158C77.0433 94.4182 77.0409 94.4203 77.0387 94.4224C77.038 94.4232 77.0369 94.4242 77.0362 94.4248C77.0334 94.4277 77.0306 94.4306 77.0277 94.4333C77.0275 94.4333 77.0275 94.4335 77.0274 94.4336C76.9797 94.4801 76.9314 94.5252 76.8821 94.5691C76.5192 94.8927 76.1151 95.1451 75.6877 95.3252C75.6862 95.3258 75.685 95.3264 75.6835 95.327C75.6818 95.3276 75.6805 95.3285 75.6788 95.329C75.1623 95.5465 74.5953 95.6664 73.9999 95.6664Z" fill="white"/>
</g>
<defs>
<linearGradient id="paint0_linear_1153_21" x1="74" y1="0" x2="74" y2="148" gradientUnits="userSpaceOnUse">
<stop stop-color="#418BF9"/>
<stop offset="1" stop-color="#748DE5"/>
</linearGradient>
<clipPath id="clip0_1153_21">
<rect width="78" height="78" fill="white" transform="translate(35 35)"/>
</clipPath>
</defs>
</svg>
