<svg width="29" height="29" viewBox="0 0 29 29" fill="none" xmlns="http://www.w3.org/2000/svg">
<path d="M28.0214 16.6477L23.8119 6.73786C24.5238 6.4468 25.1707 6.01706 25.715 5.47364L26.9203 4.26379C27.0688 4.09043 27.1464 3.86742 27.1376 3.63934C27.1287 3.41126 27.0342 3.1949 26.8728 3.0335C26.7114 2.8721 26.495 2.77755 26.267 2.76874C26.0389 2.75993 25.8159 2.83751 25.6425 2.98598L24.4327 4.19129C23.8505 4.77236 23.1062 5.16379 22.2975 5.3142C21.4888 5.46462 20.6536 5.36698 19.9014 5.03411L16.8881 3.67473C16.1362 3.34127 15.3227 3.169 14.5002 3.169C13.6776 3.169 12.8641 3.34127 12.1122 3.67473L9.09891 5.03411C8.34674 5.36698 7.51148 5.46462 6.70281 5.3142C5.89414 5.16379 5.14985 4.77236 4.56766 4.19129L3.35782 2.98598C3.18445 2.83751 2.96145 2.75993 2.73336 2.76874C2.50528 2.77755 2.28893 2.8721 2.12753 3.0335C1.96613 3.1949 1.87158 3.41126 1.86277 3.63934C1.85396 3.86742 1.93154 4.09043 2.08001 4.26379L3.28532 5.47364C3.83047 6.01813 4.4791 6.44798 5.19298 6.73786L0.978913 16.6477C0.90203 16.8279 0.885643 17.0283 0.932209 17.2186C0.978774 17.409 1.08578 17.5791 1.23719 17.7035C2.677 18.8845 4.48167 19.53 6.34391 19.53C8.20616 19.53 10.0108 18.8845 11.4506 17.7035C11.602 17.5791 11.7091 17.409 11.7556 17.2186C11.8022 17.0283 11.7858 16.8279 11.7089 16.6477L7.70329 7.18645C8.44457 7.15962 9.17376 6.99039 9.8511 6.68801L12.8644 5.35129C13.0994 5.24715 13.3436 5.16523 13.5939 5.10661V24.4686H10.1049C9.8645 24.4686 9.63399 24.5641 9.46404 24.7341C9.29408 24.904 9.1986 25.1345 9.1986 25.3749C9.1986 25.6152 9.29408 25.8457 9.46404 26.0157C9.63399 26.1857 9.8645 26.2811 10.1049 26.2811H18.8955C19.1358 26.2811 19.3663 26.1857 19.5363 26.0157C19.7062 25.8457 19.8017 25.6152 19.8017 25.3749C19.8017 25.1345 19.7062 24.904 19.5363 24.7341C19.3663 24.5641 19.1358 24.4686 18.8955 24.4686H15.4064V5.10661C15.6629 5.16413 15.9132 5.24606 16.1541 5.35129L19.1674 6.71067C19.8415 6.99967 20.5639 7.15953 21.297 7.18192L17.2914 16.6477C17.2145 16.8279 17.1981 17.0283 17.2447 17.2186C17.2913 17.409 17.3983 17.5791 17.5497 17.7035C18.9895 18.8845 20.7942 19.53 22.6564 19.53C24.5187 19.53 26.3233 18.8845 27.7631 17.7035C27.9145 17.5791 28.0216 17.409 28.0681 17.2186C28.1147 17.0283 28.0983 16.8279 28.0214 16.6477ZM2.92735 16.7021L6.34391 8.65911L9.76048 16.7021C8.74513 17.3672 7.55772 17.7215 6.34391 17.7215C5.13011 17.7215 3.9427 17.3672 2.92735 16.7021ZM19.2399 16.7021L22.6564 8.65911L26.073 16.7021C25.0576 17.3672 23.8702 17.7215 22.6564 17.7215C21.4426 17.7215 20.2552 17.3672 19.2399 16.7021Z" fill="#E6A358"/>
</svg>
