<svg width="24" height="24" viewBox="0 0 24 24" fill="none" xmlns="http://www.w3.org/2000/svg">
<g clip-path="url(#clip0_820_3755)">
<path d="M23.6581 6.81513C23.6038 5.58346 23.4046 4.7367 23.1193 4.00297C22.825 3.22413 22.3722 2.52684 21.7789 1.94718C21.1992 1.3585 20.4973 0.901066 19.7275 0.611324C18.9895 0.326004 18.1472 0.126829 16.9155 0.072524C15.6747 0.0136203 15.2807 0 12.1335 0C8.98635 0 8.59242 0.0136203 7.35615 0.0679249C6.12448 0.122229 5.27772 0.321582 4.54416 0.606725C3.76515 0.901066 3.06786 1.3539 2.4882 1.94718C1.89951 2.52684 1.44226 3.22873 1.15234 3.99855C0.86702 4.7367 0.667844 5.57886 0.61354 6.81053C0.554636 8.0514 0.541016 8.44533 0.541016 11.5925C0.541016 14.7397 0.554636 15.1336 0.608941 16.3699C0.663245 17.6016 0.862598 18.4483 1.14792 19.1821C1.44226 19.9609 1.89951 20.6582 2.4882 21.2379C3.06786 21.8265 3.76975 22.284 4.53956 22.5737C5.27772 22.859 6.11988 23.0582 7.35173 23.1125C8.58782 23.167 8.98192 23.1804 12.1291 23.1804C15.2763 23.1804 15.6702 23.167 16.9065 23.1125C18.1382 23.0582 18.9849 22.859 19.7185 22.5737C21.2763 21.9714 22.508 20.7397 23.1103 19.1821C23.3954 18.4439 23.5948 17.6016 23.6491 16.3699C23.7034 15.1336 23.717 14.7397 23.717 11.5925C23.717 8.44533 23.7124 8.0514 23.6581 6.81513ZM21.5707 16.2793C21.5208 17.4114 21.3306 18.0227 21.1721 18.4303C20.7826 19.4401 19.9812 20.2416 18.9713 20.6311C18.5638 20.7896 17.948 20.9798 16.8204 21.0295C15.5977 21.084 15.231 21.0974 12.1381 21.0974C9.04525 21.0974 8.67396 21.084 7.45574 21.0295C6.32365 20.9798 5.71233 20.7896 5.30478 20.6311C4.80224 20.4454 4.34481 20.1511 3.97352 19.7661C3.58862 19.3903 3.29427 18.9374 3.10854 18.4349C2.95005 18.0273 2.7599 17.4114 2.71019 16.2839C2.65571 15.0613 2.64227 14.6944 2.64227 11.6015C2.64227 8.50866 2.65571 8.13737 2.71019 6.91932C2.7599 5.78724 2.95005 5.17591 3.10854 4.76836C3.29427 4.26565 3.58862 3.80839 3.97812 3.43693C4.35383 3.05202 4.80666 2.75768 5.30938 2.57212C5.71693 2.41363 6.33285 2.22348 7.46034 2.1736C8.68298 2.11929 9.04985 2.10567 12.1426 2.10567C15.24 2.10567 15.6067 2.11929 16.825 2.1736C17.957 2.22348 18.5684 2.41363 18.9759 2.57212C19.4784 2.75768 19.9359 3.05202 20.3072 3.43693C20.6921 3.81282 20.9864 4.26565 21.1721 4.76836C21.3306 5.17591 21.5208 5.79166 21.5707 6.91932C21.625 8.14197 21.6386 8.50866 21.6386 11.6015C21.6386 14.6944 21.625 15.0567 21.5707 16.2793Z" fill="white"/>
<path d="M12.1335 5.63782C8.846 5.63782 6.17871 8.30493 6.17871 11.5926C6.17871 14.8802 8.846 17.5473 12.1335 17.5473C15.4211 17.5473 18.0882 14.8802 18.0882 11.5926C18.0882 8.30493 15.4211 5.63782 12.1335 5.63782ZM12.1335 15.4553C10.0007 15.4553 8.27076 13.7255 8.27076 11.5926C8.27076 9.45965 10.0007 7.72987 12.1335 7.72987C14.2664 7.72987 15.9962 9.45965 15.9962 11.5926C15.9962 13.7255 14.2664 15.4553 12.1335 15.4553Z" fill="white"/>
<path d="M19.7141 5.40237C19.7141 6.17006 19.0916 6.79253 18.3238 6.79253C17.5561 6.79253 16.9336 6.17006 16.9336 5.40237C16.9336 4.6345 17.5561 4.01221 18.3238 4.01221C19.0916 4.01221 19.7141 4.6345 19.7141 5.40237Z" fill="white"/>
</g>
<defs>
<clipPath id="clip0_820_3755">
<rect width="23.1805" height="23.1805" fill="white" transform="translate(0.5)"/>
</clipPath>
</defs>
</svg>
