<svg width="34" height="34" viewBox="0 0 34 34" fill="none" xmlns="http://www.w3.org/2000/svg">
<g clip-path="url(#clip0_1710_271)">
<path d="M33.4273 33.8041L33.4356 33.8028V21.5401C33.4356 15.5411 32.1442 10.9199 25.131 10.9199C21.7595 10.9199 19.497 12.7701 18.5733 14.5241H18.4758V11.48H11.8262V33.8028H18.7502V22.7493C18.7502 19.839 19.3019 17.0248 22.9061 17.0248C26.4572 17.0248 26.5102 20.3461 26.5102 22.936V33.8041H33.4273Z" fill="white"/>
<path d="M0.552734 11.4814H7.48515V33.8042H0.552734V11.4814Z" fill="white"/>
<path d="M4.01512 0.368164C1.79858 0.368164 0 2.16675 0 4.38328C0 6.59982 1.79858 8.43602 4.01512 8.43602C6.23165 8.43602 8.03024 6.59982 8.03024 4.38328C8.02884 2.16675 6.23026 0.368164 4.01512 0.368164Z" fill="white"/>
</g>
<defs>
<clipPath id="clip0_1710_271">
<rect width="33.4361" height="33.4361" fill="white" transform="translate(0 0.368164)"/>
</clipPath>
</defs>
</svg>
