<svg width="21" height="20" viewBox="0 0 21 20" fill="none" xmlns="http://www.w3.org/2000/svg">
<g clip-path="url(#clip0_1250_486)">
<path d="M20.7633 19.9876L20.7683 19.9868V12.6608C20.7683 9.07691 19.9967 6.31616 15.8069 6.31616C13.7927 6.31616 12.4411 7.42146 11.8892 8.46933H11.831V6.65075H7.8584V19.9868H11.9949V13.3833C11.9949 11.6446 12.3245 9.96332 14.4777 9.96332C16.5993 9.96332 16.6309 11.9475 16.6309 13.4948V19.9876H20.7633Z" fill="white"/>
<path d="M1.12305 6.65161H5.26459V19.9876H1.12305V6.65161Z" fill="white"/>
<path d="M3.19167 0.0123291C1.86747 0.0123291 0.792969 1.08683 0.792969 2.41103C0.792969 3.73523 1.86747 4.8322 3.19167 4.8322C4.51587 4.8322 5.59037 3.73523 5.59037 2.41103C5.58954 1.08683 4.51503 0.0123291 3.19167 0.0123291Z" fill="white"/>
</g>
<defs>
<clipPath id="clip0_1250_486">
<rect width="19.9753" height="19.9753" fill="white" transform="translate(0.792969 0.0123291)"/>
</clipPath>
</defs>
</svg>
