<svg width="54" height="54" viewBox="0 0 54 54" fill="none" xmlns="http://www.w3.org/2000/svg">
<path d="M27 54C41.9117 54 54 41.9117 54 27C54 12.0883 41.9117 0 27 0C12.0883 0 0 12.0883 0 27C0 41.9117 12.0883 54 27 54Z" fill="#E0AF04"/>
<path d="M20.9602 17.1841C20.9609 17.9137 20.7452 18.6272 20.3402 19.2342C19.9353 19.8411 19.3594 20.3143 18.6854 20.5939C18.0115 20.8734 17.2697 20.9468 16.554 20.8046C15.8384 20.6624 15.181 20.3111 14.665 19.7952C14.1491 19.2792 13.7978 18.6218 13.6556 17.9062C13.5135 17.1905 13.5868 16.4488 13.8663 15.7748C14.1459 15.1008 14.6191 14.5249 15.2261 14.12C15.833 13.7151 16.5465 13.4993 17.2761 13.5C18.2529 13.5009 19.1894 13.8894 19.8801 14.5801C20.5708 15.2708 20.9593 16.2073 20.9602 17.1841Z" fill="#0770C3"/>
<path d="M19.2154 22.4062H15.3359C14.8316 22.4062 14.4229 22.815 14.4229 23.3193V39.5868C14.4229 40.091 14.8316 40.4998 15.3359 40.4998H19.2154C19.7196 40.4998 20.1284 40.091 20.1284 39.5868V23.3193C20.1284 22.815 19.7196 22.4062 19.2154 22.4062Z" fill="#0770C3"/>
<path d="M40.4107 31.7855V39.6617C40.4107 39.8841 40.3224 40.0973 40.1651 40.2546C40.0079 40.4118 39.7946 40.5001 39.5723 40.5001H35.4086C35.1862 40.5001 34.973 40.4118 34.8157 40.2546C34.6585 40.0973 34.5702 39.8841 34.5702 39.6617V32.0307C34.5702 30.8903 34.9006 27.057 31.5931 27.057C29.0281 27.057 28.5058 29.693 28.3957 30.8761V39.6795C28.3911 39.8975 28.3017 40.1052 28.1465 40.2584C27.9913 40.4116 27.7825 40.4983 27.5644 40.5001H23.5357C23.4255 40.5006 23.3162 40.4792 23.2143 40.4373C23.1124 40.3953 23.0197 40.3336 22.9418 40.2556C22.8638 40.1777 22.8021 40.0851 22.7601 39.9831C22.7182 39.8812 22.6968 39.772 22.6973 39.6617V23.2486C22.6968 23.1382 22.7181 23.0288 22.7601 22.9266C22.802 22.8245 22.8637 22.7316 22.9416 22.6534C23.0195 22.5752 23.1121 22.5131 23.214 22.4707C23.316 22.4284 23.4253 22.4066 23.5357 22.4066H27.5644C27.6761 22.4047 27.7872 22.4251 27.891 22.4666C27.9948 22.508 28.0893 22.5697 28.169 22.6481C28.2486 22.7265 28.3119 22.8199 28.3551 22.923C28.3983 23.0261 28.4206 23.1368 28.4206 23.2486V24.6696C29.3727 23.2486 30.7866 22.1401 33.7957 22.1401C40.4498 22.1366 40.4107 28.3643 40.4107 31.7855Z" fill="#0770C3"/>
</svg>
