<svg width="88" height="87" viewBox="0 0 88 87" fill="none" xmlns="http://www.w3.org/2000/svg">
<circle cx="43.8307" cy="43.3756" r="43.3756" fill="#E0AF04"/>
<g clip-path="url(#clip0_1710_194)">
<path d="M39.3169 55.4451H29.9481C29.4358 55.4451 29.0205 55.9174 29.0205 56.5C29.0205 57.0826 29.4358 57.5549 29.9481 57.5549H39.3169C39.8292 57.5549 40.2445 57.0826 40.2445 56.5C40.2445 55.9174 39.8292 55.4451 39.3169 55.4451Z" fill="#844C0D"/>
<path d="M53.3237 55.4451H43.9549C43.4426 55.4451 43.0273 55.9174 43.0273 56.5C43.0273 57.0826 43.4426 57.5549 43.9549 57.5549H53.3237C53.8359 57.5549 54.2513 57.0826 54.2513 56.5C54.2513 55.9174 53.8359 55.4451 53.3237 55.4451Z" fill="#844C0D"/>
<path d="M53.3237 29.0723H29.9481C29.4358 29.0723 29.0205 29.5446 29.0205 30.1272C29.0205 30.7098 29.4358 31.1821 29.9481 31.1821H53.3237C53.8359 31.1821 54.2513 30.7098 54.2513 30.1272C54.2513 29.5446 53.8359 29.0723 53.3237 29.0723Z" fill="#844C0D"/>
<path d="M53.3237 34.3467H43.9549C43.4426 34.3467 43.0273 34.819 43.0273 35.4016C43.0273 35.9842 43.4426 36.4565 43.9549 36.4565H53.3237C53.8359 36.4565 54.2513 35.9842 54.2513 35.4016C54.2513 34.819 53.8359 34.3467 53.3237 34.3467Z" fill="#844C0D"/>
<path d="M53.3237 39.6213H43.9549C43.4426 39.6213 43.0273 40.0936 43.0273 40.6763C43.0273 41.2589 43.4426 41.7312 43.9549 41.7312H53.3237C53.8359 41.7312 54.2513 41.2589 54.2513 40.6763C54.2513 40.0936 53.8359 39.6213 53.3237 39.6213Z" fill="#844C0D"/>
<path d="M53.3237 44.896H43.9549C43.4426 44.896 43.0273 45.3683 43.0273 45.9509C43.0273 46.5335 43.4426 47.0058 43.9549 47.0058H53.3237C53.8359 47.0058 54.2513 46.5335 54.2513 45.9509C54.2513 45.3683 53.8359 44.896 53.3237 44.896Z" fill="#844C0D"/>
<path d="M53.3237 50.1707H43.9549C43.4426 50.1707 43.0273 50.6429 43.0273 51.2256C43.0273 51.8082 43.4426 52.2805 43.9549 52.2805H53.3237C53.8359 52.2805 54.2513 51.8082 54.2513 51.2256C54.2513 50.6429 53.8359 50.1707 53.3237 50.1707Z" fill="#844C0D"/>
<path d="M39.3169 50.1707H29.9481C29.4358 50.1707 29.0205 50.6429 29.0205 51.2256C29.0205 51.8082 29.4358 52.2805 29.9481 52.2805H39.3169C39.8292 52.2805 40.2445 51.8082 40.2445 51.2256C40.2445 50.6429 39.8292 50.1707 39.3169 50.1707Z" fill="#844C0D"/>
<path d="M39.3169 34.3467H29.9481C29.4358 34.3467 29.0205 34.819 29.0205 35.4016V46.0563C29.0205 46.6389 29.4358 47.1112 29.9481 47.1112H39.3169C39.8292 47.1112 40.2445 46.6389 40.2445 46.0563V35.4016C40.2445 34.819 39.8292 34.3467 39.3169 34.3467ZM38.3893 45.0014H30.8757V36.4565H38.3893V45.0014Z" fill="#844C0D"/>
<path d="M62.5999 28.0173H59.8171V24.8525C59.8171 23.6891 58.9848 22.7427 57.9619 22.7427H25.3103C24.2873 22.7427 23.4551 23.6891 23.4551 24.8525V58.6099C23.4551 61.5184 25.5357 63.8845 28.0931 63.8845H59.8171C62.3745 63.8845 64.4551 61.5184 64.4551 58.6099V30.1271C64.4551 28.9637 63.6228 28.0173 62.5999 28.0173ZM62.5999 58.6099C62.5999 60.355 61.3515 61.7747 59.8171 61.7747H28.0931C26.5586 61.7747 25.3103 60.355 25.3103 58.6099V24.8525H57.9619V57.0276C57.9619 58.4818 59.0022 59.6649 60.2809 59.6649C60.7931 59.6649 61.2085 59.1926 61.2085 58.6099C61.2085 58.0273 60.7931 57.555 60.2809 57.555C60.0251 57.555 59.8171 57.3184 59.8171 57.0276V30.1271H62.5999V58.6099Z" fill="#844C0D"/>
</g>
<defs>
<clipPath id="clip0_1710_194">
<rect width="41" height="46.6275" fill="white" transform="translate(23.4551 20)"/>
</clipPath>
</defs>
</svg>
