<svg width="88" height="87" viewBox="0 0 88 87" fill="none" xmlns="http://www.w3.org/2000/svg">
<circle cx="43.8312" cy="43.3756" r="43.3756" fill="#FFCF98" fill-opacity="0.39"/>
<g clip-path="url(#clip0_1115_172)">
<path d="M39.3174 55.4453H29.9486C29.4363 55.4453 29.021 55.9175 29.021 56.5002C29.021 57.0828 29.4363 57.5551 29.9486 57.5551H39.3174C39.8297 57.5551 40.245 57.0828 40.245 56.5002C40.245 55.9175 39.8297 55.4453 39.3174 55.4453Z" fill="#844C0D"/>
<path d="M53.3242 55.4453H43.9554C43.4431 55.4453 43.0278 55.9175 43.0278 56.5002C43.0278 57.0828 43.4431 57.5551 43.9554 57.5551H53.3242C53.8364 57.5551 54.2518 57.0828 54.2518 56.5002C54.2518 55.9175 53.8364 55.4453 53.3242 55.4453Z" fill="#844C0D"/>
<path d="M53.3242 29.0723H29.9486C29.4363 29.0723 29.021 29.5446 29.021 30.1272C29.021 30.7098 29.4363 31.1821 29.9486 31.1821H53.3242C53.8364 31.1821 54.2518 30.7098 54.2518 30.1272C54.2518 29.5446 53.8364 29.0723 53.3242 29.0723Z" fill="#844C0D"/>
<path d="M53.3242 34.3469H43.9554C43.4431 34.3469 43.0278 34.8192 43.0278 35.4018C43.0278 35.9844 43.4431 36.4567 43.9554 36.4567H53.3242C53.8364 36.4567 54.2518 35.9844 54.2518 35.4018C54.2518 34.8192 53.8364 34.3469 53.3242 34.3469Z" fill="#844C0D"/>
<path d="M53.3242 39.6215H43.9554C43.4431 39.6215 43.0278 40.0937 43.0278 40.6764C43.0278 41.259 43.4431 41.7313 43.9554 41.7313H53.3242C53.8364 41.7313 54.2518 41.259 54.2518 40.6764C54.2518 40.0937 53.8364 39.6215 53.3242 39.6215Z" fill="#844C0D"/>
<path d="M53.3242 44.8961H43.9554C43.4431 44.8961 43.0278 45.3683 43.0278 45.951C43.0278 46.5336 43.4431 47.0059 43.9554 47.0059H53.3242C53.8364 47.0059 54.2518 46.5336 54.2518 45.951C54.2518 45.3683 53.8364 44.8961 53.3242 44.8961Z" fill="#844C0D"/>
<path d="M53.3242 50.1707H43.9554C43.4431 50.1707 43.0278 50.643 43.0278 51.2256C43.0278 51.8083 43.4431 52.2806 43.9554 52.2806H53.3242C53.8364 52.2806 54.2518 51.8083 54.2518 51.2256C54.2518 50.643 53.8364 50.1707 53.3242 50.1707Z" fill="#844C0D"/>
<path d="M39.3174 50.1707H29.9486C29.4363 50.1707 29.021 50.643 29.021 51.2256C29.021 51.8083 29.4363 52.2806 29.9486 52.2806H39.3174C39.8297 52.2806 40.245 51.8083 40.245 51.2256C40.245 50.643 39.8297 50.1707 39.3174 50.1707Z" fill="#844C0D"/>
<path d="M39.3174 34.3469H29.9486C29.4363 34.3469 29.021 34.8192 29.021 35.4018V46.0565C29.021 46.6391 29.4363 47.1114 29.9486 47.1114H39.3174C39.8297 47.1114 40.245 46.6391 40.245 46.0565V35.4018C40.245 34.8192 39.8297 34.3469 39.3174 34.3469ZM38.3898 45.0016H30.8762V36.4567H38.3898V45.0016Z" fill="#844C0D"/>
<path d="M62.6004 28.0174H59.8176V24.8526C59.8176 23.6893 58.9853 22.7428 57.9624 22.7428H25.3108C24.2878 22.7428 23.4556 23.6893 23.4556 24.8526V58.6101C23.4556 61.5185 25.5362 63.8847 28.0936 63.8847H59.8176C62.375 63.8847 64.4556 61.5185 64.4556 58.6101V30.1272C64.4556 28.9639 63.6233 28.0174 62.6004 28.0174ZM62.6004 58.6101C62.6004 60.3551 61.352 61.7748 59.8176 61.7748H28.0936C26.5591 61.7748 25.3108 60.3551 25.3108 58.6101V24.8526H57.9624V57.0277C57.9624 58.4819 59.0027 59.665 60.2814 59.665C60.7936 59.665 61.209 59.1927 61.209 58.6101C61.209 58.0274 60.7936 57.5551 60.2814 57.5551C60.0256 57.5551 59.8176 57.3185 59.8176 57.0277V30.1272H62.6004V58.6101Z" fill="#844C0D"/>
</g>
<defs>
<clipPath id="clip0_1115_172">
<rect width="41" height="46.6275" fill="white" transform="translate(23.4556 20)"/>
</clipPath>
</defs>
</svg>
