<svg width="34" height="34" viewBox="0 0 34 34" fill="none" xmlns="http://www.w3.org/2000/svg">
<g clip-path="url(#clip0_1009_2614)">
<path d="M29.0189 4.97725C22.379 -1.66065 11.6152 -1.65906 4.97725 4.9809C-1.66065 11.6209 -1.65906 22.3847 4.9809 29.0226C11.6209 35.6605 22.3847 35.6589 29.0226 29.0189C32.2105 25.83 34.0009 21.5053 33.9999 16.9963C33.999 12.4879 32.2073 8.16462 29.0189 4.97725ZM25.7458 23.6807C25.7451 23.6814 25.7443 23.6822 25.7435 23.683V23.6773L24.8822 24.533C23.7682 25.661 22.1459 26.1251 20.6038 25.757C19.0503 25.3411 17.5734 24.6792 16.2292 23.7963C14.9804 22.9982 13.823 22.0652 12.7782 21.014C11.8168 20.0596 10.9531 19.0117 10.1998 17.886C9.37587 16.6746 8.72369 15.355 8.26184 13.9646C7.73238 12.3313 8.17113 10.539 9.39519 9.33496L10.4038 8.32632C10.6843 8.04462 11.1399 8.04362 11.4216 8.32406C11.4223 8.32479 11.4231 8.32552 11.4238 8.32632L14.6085 11.511C14.8902 11.7914 14.8912 12.2471 14.6107 12.5287C14.61 12.5294 14.6093 12.5302 14.6085 12.531L12.7385 14.401C12.2019 14.9317 12.1344 15.775 12.5798 16.3843C13.2562 17.3125 14.0046 18.186 14.8182 18.9967C15.7252 19.9076 16.7113 20.7363 17.7648 21.473C18.3736 21.8976 19.1989 21.826 19.7255 21.303L21.5331 19.467C21.8136 19.1853 22.2692 19.1843 22.5509 19.4648C22.5516 19.4655 22.5523 19.4662 22.5531 19.467L25.7435 22.663C26.0252 22.9434 26.0262 23.399 25.7458 23.6807Z" fill="#E6A358"/>
</g>
<defs>
<clipPath id="clip0_1009_2614">
<rect width="34" height="34" fill="white"/>
</clipPath>
</defs>
</svg>
