<svg width="88" height="87" viewBox="0 0 88 87" fill="none" xmlns="http://www.w3.org/2000/svg">
<circle cx="44.0001" cy="43.3756" r="43.3756" fill="white" fill-opacity="0.43"/>
<path d="M57.2191 36.3235H54.7754V32.658C54.7754 31.6859 54.3892 30.7535 53.7018 30.0661C53.0144 29.3787 52.0821 28.9926 51.11 28.9926H30.339C29.3669 28.9926 28.4346 29.3787 27.7472 30.0661C27.0598 30.7535 26.6736 31.6859 26.6736 32.658V57.0944C26.6736 58.0665 27.0598 58.9988 27.7472 59.6863C28.4346 60.3737 29.3669 60.7598 30.339 60.7598H56.6081C57.7423 60.7598 58.83 60.3093 59.632 59.5073C60.434 58.7054 60.8845 57.6176 60.8845 56.4835V39.9889C60.8845 39.0168 60.4983 38.0845 59.8109 37.3971C59.1235 36.7096 58.1912 36.3235 57.2191 36.3235ZM29.1172 57.0944V32.658C29.1172 32.334 29.2459 32.0232 29.4751 31.7941C29.7042 31.5649 30.015 31.4362 30.339 31.4362H51.11C51.434 31.4362 51.7448 31.5649 51.9739 31.7941C52.2031 32.0232 52.3318 32.334 52.3318 32.658V56.4835C52.3344 57.1188 52.4806 57.7453 52.7594 58.3162H30.339C30.015 58.3162 29.7042 58.1875 29.4751 57.9583C29.2459 57.7292 29.1172 57.4184 29.1172 57.0944ZM58.4409 56.4835C58.4409 56.9695 58.2478 57.4357 57.9041 57.7794C57.5604 58.1231 57.0942 58.3162 56.6081 58.3162C56.1221 58.3162 55.6559 58.1231 55.3122 57.7794C54.9685 57.4357 54.7754 56.9695 54.7754 56.4835V38.7671H57.2191C57.5431 38.7671 57.8539 38.8958 58.083 39.125C58.3121 39.3541 58.4409 39.6649 58.4409 39.9889V56.4835Z" fill="#844C0D"/>
<path d="M48.6663 37.5454H36.4481C36.1241 37.5454 35.8133 37.6741 35.5842 37.9033C35.355 38.1324 35.2263 38.4432 35.2263 38.7672C35.2263 39.0913 35.355 39.402 35.5842 39.6312C35.8133 39.8603 36.1241 39.989 36.4481 39.989H48.6663C48.9904 39.989 49.3011 39.8603 49.5303 39.6312C49.7594 39.402 49.8881 39.0913 49.8881 38.7672C49.8881 38.4432 49.7594 38.1324 49.5303 37.9033C49.3011 37.6741 48.9904 37.5454 48.6663 37.5454Z" fill="#844C0D"/>
<path d="M48.6663 43.6544H32.7826C32.4586 43.6544 32.1478 43.7831 31.9187 44.0123C31.6895 44.2414 31.5608 44.5522 31.5608 44.8762C31.5608 45.2003 31.6895 45.5111 31.9187 45.7402C32.1478 45.9693 32.4586 46.0981 32.7826 46.0981H48.6663C48.9903 46.0981 49.3011 45.9693 49.5302 45.7402C49.7593 45.5111 49.8881 45.2003 49.8881 44.8762C49.8881 44.5522 49.7593 44.2414 49.5302 44.0123C49.3011 43.7831 48.9903 43.6544 48.6663 43.6544Z" fill="#844C0D"/>
<path d="M48.6663 49.7635H32.7826C32.4586 49.7635 32.1478 49.8923 31.9187 50.1214C31.6895 50.3505 31.5608 50.6613 31.5608 50.9854C31.5608 51.3094 31.6895 51.6202 31.9187 51.8493C32.1478 52.0785 32.4586 52.2072 32.7826 52.2072H48.6663C48.9903 52.2072 49.3011 52.0785 49.5302 51.8493C49.7593 51.6202 49.8881 51.3094 49.8881 50.9854C49.8881 50.6613 49.7593 50.3505 49.5302 50.1214C49.3011 49.8923 48.9903 49.7635 48.6663 49.7635Z" fill="#844C0D"/>
</svg>
