<svg width="34" height="34" viewBox="0 0 34 34" fill="none" xmlns="http://www.w3.org/2000/svg">
<path d="M17 34C7.61112 34 -5.72205e-05 26.3889 -5.72205e-05 17C-5.72205e-05 7.61117 7.61112 0 17 0C26.3888 0 34 7.61117 34 17C34 26.3889 26.3888 34 17 34Z" fill="#E0AF04"/>
<path fill-rule="evenodd" clip-rule="evenodd" d="M27.3622 9.44458H6.63771C6.10285 9.44458 5.66646 9.95363 5.66646 10.5778V23.4226C5.66646 24.0468 6.10285 24.5558 6.63771 24.5558H27.3622C27.8971 24.5558 28.3335 24.0468 28.3335 23.4226V10.5778C28.3335 9.95363 27.8971 9.44458 27.3622 9.44458ZM15.8396 19.6149H8.2838C7.83843 19.6149 7.47433 19.9791 7.47433 20.4245C7.47433 20.8699 7.83843 21.2342 8.2838 21.2342H15.8396C16.285 21.2342 16.6491 20.8699 16.6491 20.4245C16.6491 19.9791 16.285 19.6149 15.8396 19.6149ZM15.8396 16.1905H8.2838C7.83843 16.1905 7.47433 16.5548 7.47433 17.0002C7.47433 17.4456 7.83843 17.8099 8.2838 17.8099H15.8396C16.285 17.8099 16.6491 17.4456 16.6491 17.0002C16.6491 16.5548 16.285 16.1905 15.8396 16.1905ZM15.8396 12.7662H8.2838C7.83843 12.7662 7.47433 13.1305 7.47433 13.5759C7.47433 14.0212 7.83843 14.3855 8.2838 14.3855H15.8396C16.285 14.3855 16.6491 14.0212 16.6491 13.5759C16.6491 13.1305 16.285 12.7662 15.8396 12.7662ZM22.585 12.7662C21.5024 12.7662 20.6243 13.6441 20.6243 14.7269C20.6243 15.8094 21.5024 16.6873 22.585 16.6873C23.6675 16.6873 24.5455 15.8094 24.5455 14.7269C24.5455 13.6441 23.6675 12.7662 22.585 12.7662ZM22.4781 21.2342H26.1625C26.2686 21.2342 26.3602 21.1938 26.4314 21.1152C26.5027 21.0366 26.534 20.9418 26.5239 20.8364C26.3239 18.7786 24.5883 17.1696 22.4781 17.1696C20.3679 17.1696 18.6325 18.7786 18.4323 20.8364C18.4221 20.9418 18.4537 21.0366 18.5248 21.1152C18.5962 21.194 18.6876 21.2342 18.7937 21.2342H22.4781Z" fill="white"/>
</svg>
