<svg width="34" height="34" viewBox="0 0 34 34" fill="none" xmlns="http://www.w3.org/2000/svg">
<path d="M17 34C7.61118 34 3.8147e-06 26.3889 3.8147e-06 17C3.8147e-06 7.61117 7.61118 0 17 0C26.3889 0 34.0001 7.61117 34.0001 17C34.0001 26.3889 26.3889 34 17 34Z" fill="#E6A358"/>
<path fill-rule="evenodd" clip-rule="evenodd" d="M27.3621 9.44458H6.63759C6.10272 9.44458 5.66634 9.95363 5.66634 10.5778V23.4226C5.66634 24.0468 6.10272 24.5558 6.63759 24.5558H27.3621C27.897 24.5558 28.3334 24.0468 28.3334 23.4226V10.5778C28.3334 9.95363 27.897 9.44458 27.3621 9.44458ZM15.8395 19.6149H8.28368C7.83831 19.6149 7.47421 19.9791 7.47421 20.4245C7.47421 20.8699 7.83831 21.2342 8.28368 21.2342H15.8395C16.2849 21.2342 16.649 20.8699 16.649 20.4245C16.649 19.9791 16.2849 19.6149 15.8395 19.6149ZM15.8395 16.1905H8.28368C7.83831 16.1905 7.47421 16.5548 7.47421 17.0002C7.47421 17.4456 7.83831 17.8099 8.28368 17.8099H15.8395C16.2849 17.8099 16.649 17.4456 16.649 17.0002C16.649 16.5548 16.2849 16.1905 15.8395 16.1905ZM15.8395 12.7662H8.28368C7.83831 12.7662 7.47421 13.1305 7.47421 13.5759C7.47421 14.0212 7.83831 14.3855 8.28368 14.3855H15.8395C16.2849 14.3855 16.649 14.0212 16.649 13.5759C16.649 13.1305 16.2849 12.7662 15.8395 12.7662ZM22.5849 12.7662C21.5023 12.7662 20.6242 13.6441 20.6242 14.7269C20.6242 15.8094 21.5023 16.6873 22.5849 16.6873C23.6674 16.6873 24.5453 15.8094 24.5453 14.7269C24.5453 13.6441 23.6674 12.7662 22.5849 12.7662ZM22.478 21.2342H26.1624C26.2685 21.2342 26.3601 21.1938 26.4312 21.1152C26.5026 21.0366 26.5339 20.9418 26.5238 20.8364C26.3238 18.7786 24.5882 17.1696 22.478 17.1696C20.3678 17.1696 18.6324 18.7786 18.4322 20.8364C18.422 20.9418 18.4536 21.0366 18.5247 21.1152C18.596 21.194 18.6874 21.2342 18.7936 21.2342H22.478Z" fill="white"/>
</svg>
