<svg width="40" height="40" viewBox="0 0 40 40" fill="none" xmlns="http://www.w3.org/2000/svg">
<path fill-rule="evenodd" clip-rule="evenodd" d="M10.5732 2.91719C10.5732 2.62142 10.8129 2.38165 11.1087 2.38165H26.8327C27.1285 2.38165 27.3683 2.62142 27.3683 2.9172V19.3318C27.3683 19.746 27.7041 20.0818 28.1183 20.0818C28.5325 20.0818 28.8683 19.746 28.8683 19.3318V2.9172C28.8683 1.793 27.9569 0.881653 26.8327 0.881653H11.1087C9.98452 0.881653 9.07318 1.79299 9.07318 2.91719V9.86551C9.07318 10.1613 8.83341 10.4011 8.53763 10.4011H2.50642L7.98506 4.67892C8.27152 4.37973 8.2612 3.90497 7.96201 3.61851C7.66282 3.33205 7.18805 3.34237 6.9016 3.64156L0.208269 10.6324L0 10.8499V11.1511V35.5976C0 36.7218 0.911343 37.6332 2.03554 37.6332H15.0291C15.4433 37.6332 15.7791 37.2974 15.7791 36.8832C15.7791 36.469 15.4433 36.1332 15.0291 36.1332H2.03554C1.73977 36.1332 1.5 35.8934 1.5 35.5976V11.9011H8.53763C9.66183 11.9011 10.5732 10.9897 10.5732 9.86551V2.91719ZM13.9888 9.80612C13.5745 9.80612 13.2388 10.1419 13.2388 10.5561C13.2388 10.9703 13.5745 11.3061 13.9888 11.3061H23.6569C24.0711 11.3061 24.4069 10.9703 24.4069 10.5561C24.4069 10.1419 24.0711 9.80612 23.6569 9.80612H13.9888ZM4.76021 15.3158C4.76021 14.9016 5.096 14.5658 5.51021 14.5658H23.8053C24.2195 14.5658 24.5553 14.9016 24.5553 15.3158C24.5553 15.73 24.2195 16.0658 23.8053 16.0658H5.51021C5.096 16.0658 4.76021 15.73 4.76021 15.3158ZM5.51021 19.3256C5.096 19.3256 4.76021 19.6613 4.76021 20.0756C4.76021 20.4898 5.096 20.8256 5.51021 20.8256H20.0868C20.501 20.8256 20.8368 20.4898 20.8368 20.0756C20.8368 19.6613 20.501 19.3256 20.0868 19.3256H5.51021ZM5.05723 25.5789C5.05723 25.1647 5.39302 24.8289 5.80723 24.8289H16.6653C17.0795 24.8289 17.4153 25.1647 17.4153 25.5789C17.4153 25.9932 17.0795 26.3289 16.6653 26.3289H5.80723C5.39302 26.3289 5.05723 25.9932 5.05723 25.5789ZM5.6584 30.1836C5.24419 30.1836 4.9084 30.5194 4.9084 30.9336C4.9084 31.3478 5.24419 31.6836 5.6584 31.6836H13.6904C14.1046 31.6836 14.4404 31.3478 14.4404 30.9336C14.4404 30.5194 14.1046 30.1836 13.6904 30.1836H5.6584ZM27.0716 26.1104V38.2156H23.9544C23.5402 38.2156 23.2044 38.5514 23.2044 38.9656C23.2044 39.3798 23.5402 39.7156 23.9544 39.7156H27.8216H31.6889C32.1031 39.7156 32.4389 39.3798 32.4389 38.9656C32.4389 38.5514 32.1031 38.2156 31.6889 38.2156H28.5716V26.012C29.1701 25.7692 29.648 25.2913 29.8907 24.6928H34.129L30.9976 32.13L30.7723 32.6649H30.6446C30.6446 32.7569 30.6486 32.8485 30.6567 32.9396L30.5592 33.171H30.6857C30.7409 33.5093 30.851 33.838 31.0116 34.1482C31.2509 34.6102 31.5952 35.0181 32.0152 35.3541C32.435 35.6899 32.925 35.9498 33.4542 36.1252C33.9835 36.3006 34.5468 36.3897 35.1131 36.3897C35.6794 36.3897 36.2427 36.3006 36.772 36.1252C37.3012 35.9498 37.7912 35.6899 38.211 35.3541C38.631 35.0181 38.9753 34.6102 39.2146 34.1482C39.3752 33.838 39.4853 33.5093 39.5405 33.171H39.791L39.3751 32.1404L35.9541 23.6622L35.7647 23.1928H35.2586H29.9891C29.7224 22.1625 28.7864 21.4017 27.6728 21.4017C26.5592 21.4017 25.6232 22.1625 25.3566 23.1928H20.5334H20.0273L19.8379 23.6622L16.4169 32.1404L16.2053 32.6649H16.066C16.066 32.7668 16.0717 32.8681 16.0827 32.9686L16.001 33.171H16.1125C16.1723 33.4942 16.2885 33.8064 16.455 34.0987C16.706 34.5395 17.0638 34.9227 17.4932 35.235C17.9226 35.5472 18.4211 35.7871 18.9567 35.9485C19.4927 36.1099 20.0622 36.1917 20.6342 36.1917C21.2062 36.1917 21.7758 36.1099 22.3117 35.9485C22.8473 35.7871 23.3458 35.5472 23.7752 35.235C24.2046 34.9227 24.5624 34.5395 24.8135 34.0987C24.9799 33.8064 25.0962 33.4942 25.1559 33.171H25.2328L25.1771 33.0388C25.1939 32.9154 25.2024 32.7906 25.2024 32.6649H25.0197L24.7944 32.13L21.663 24.6928H25.4549C25.7367 25.3875 26.3354 25.9198 27.0716 26.1104ZM38.0021 33.171H32.2241C32.2549 33.2678 32.2946 33.3638 32.3437 33.4585C32.4782 33.7182 32.6816 33.9663 32.9522 34.1828C33.2231 34.3994 33.5529 34.5777 33.926 34.7013C34.299 34.8249 34.7027 34.8897 35.1131 34.8897C35.5235 34.8897 35.9272 34.8249 36.3002 34.7013C36.6733 34.5777 37.0031 34.3994 37.274 34.1828C37.5446 33.9663 37.748 33.7182 37.8825 33.4585C37.9316 33.3638 37.9713 33.2678 38.0021 33.171ZM17.7584 33.3563C17.7233 33.2947 17.6932 33.2329 17.668 33.171H23.6004C23.5752 33.2329 23.5452 33.2947 23.5101 33.3563C23.3773 33.5893 23.1727 33.8184 22.893 34.0218C22.6132 34.2253 22.2699 34.3945 21.879 34.5122C21.4885 34.6299 21.065 34.6917 20.6342 34.6917C20.2034 34.6917 19.7799 34.6299 19.3894 34.5122C18.9985 34.3945 18.6552 34.2253 18.3755 34.0218C18.0958 33.8184 17.8911 33.5893 17.7584 33.3563ZM18.2238 31.671L20.5482 25.9106L22.9737 31.671H18.2238ZM35.2438 25.9106L37.5682 31.671H32.8184L35.2438 25.9106ZM28.5653 23.7941C28.5653 24.287 28.1657 24.6865 27.6728 24.6865C27.1799 24.6865 26.7804 24.287 26.7804 23.7941C26.7804 23.3012 27.1799 22.9017 27.6728 22.9017C28.1657 22.9017 28.5653 23.3012 28.5653 23.7941Z" fill="#844C0D"/>
</svg>
