<svg width="40" height="40" viewBox="0 0 40 40" fill="none" xmlns="http://www.w3.org/2000/svg">
<path d="M11.4919 17.0363H37.1573C37.91 17.0363 38.589 17.3432 39.0822 17.8361V17.8408C39.5751 18.334 39.8824 19.0129 39.8824 19.761V37.157C39.8824 37.9048 39.5751 38.5884 39.0822 39.0814C38.589 39.5749 37.91 39.8815 37.1573 39.8815H11.4919C10.7438 39.8815 10.0602 39.5749 9.56723 39.0814C9.074 38.5884 8.76709 37.9092 8.76709 37.157V19.761C8.76709 19.0129 9.074 18.3293 9.56723 17.8361C10.0605 17.3432 10.7438 17.0363 11.4919 17.0363ZM37.1573 18.282H11.4919C11.0853 18.282 10.7176 18.4505 10.4496 18.7185C10.1814 18.9868 10.0128 19.3544 10.0128 19.761V37.157C10.0128 37.5636 10.1814 37.9353 10.4496 38.2036C10.7173 38.4713 11.0853 38.6358 11.4919 38.6358H37.1573C37.5639 38.6358 37.9356 38.4716 38.2039 38.2036C38.4718 37.9353 38.6366 37.5633 38.6366 37.157V19.761C38.6366 19.3544 38.4721 18.9827 38.2039 18.7144V18.7188C37.9356 18.4508 37.5639 18.282 37.1573 18.282Z" fill="#844C0D"/>
<path d="M19.1213 11.8419H29.5319C30.1245 11.8419 30.6692 12.084 31.0587 12.4775C31.4478 12.871 31.6946 13.4119 31.6946 14.0042V17.6588V18.2816H31.0714H28.442H27.8195V17.6588V15.6351H20.8341V17.6591V18.282H20.2109H17.5815H16.9586V17.6591V14.0042C16.9586 13.4119 17.2007 12.8667 17.5899 12.4775C17.9834 12.084 18.5246 11.8419 19.1213 11.8419ZM29.5316 13.0876H19.1213C18.8702 13.0876 18.6412 13.191 18.4723 13.3599C18.3081 13.5244 18.2046 13.7534 18.2046 14.0042V17.0359H19.5884V15.0119V14.3894H20.2112H28.442H29.0652V15.0119V17.0363H30.4489V14.0046C30.4489 13.7534 30.3451 13.5244 30.1809 13.3602H30.1763C30.0118 13.1913 29.7827 13.0876 29.5316 13.0876Z" fill="#844C0D"/>
<path d="M6.88099 33.8052C7.2228 33.8052 7.50385 34.0815 7.50385 34.4277C7.50385 34.7692 7.2228 35.0502 6.88099 35.0502H1.86856C1.35819 35.0502 0.891126 34.8384 0.54932 34.5012V34.4969C0.211876 34.1594 0 33.6927 0 33.1776V1.86825C0 1.35788 0.211876 0.890815 0.54932 0.54932C0.886453 0.211876 1.35352 0 1.86856 0H19.3892C19.6574 0 19.9083 0.0520343 20.1423 0.155791C20.3716 0.259548 20.5791 0.410666 20.7651 0.605405L25.4666 5.6356C25.4794 5.64868 25.4881 5.66146 25.5012 5.67454C25.652 5.84311 25.7604 6.02944 25.8383 6.22386C25.9162 6.43605 25.9595 6.6607 25.9595 6.89875V9.95226C25.9595 10.2981 25.6785 10.5751 25.3367 10.5751C24.9908 10.5751 24.7094 10.2981 24.7094 9.95226V6.89875C24.7094 6.81213 24.701 6.73455 24.6749 6.66506C24.649 6.60898 24.6188 6.55695 24.5798 6.50491C24.5711 6.4965 24.5621 6.49214 24.5536 6.48341L19.8565 1.45322C19.7914 1.38405 19.7182 1.33202 19.6403 1.29307C19.5671 1.26284 19.4848 1.24571 19.3895 1.24571H1.86856C1.7 1.24571 1.5442 1.31488 1.43172 1.43172L1.42736 1.42736C1.31488 1.53953 1.24571 1.69968 1.24571 1.86825V33.1776C1.24571 33.3506 1.31488 33.5064 1.42736 33.6188L1.43172 33.6232C1.5442 33.7316 1.69968 33.8052 1.86856 33.8052H6.88099Z" fill="#844C0D"/>
<path d="M22.067 28.39L11.3797 26.361C10.6575 26.227 9.99099 25.9114 9.51146 25.4312C9.0525 24.9729 8.76709 24.3719 8.76709 23.6493H10.0128C10.0128 24.017 10.1602 24.3198 10.3936 24.5535C10.692 24.8473 11.1289 25.0508 11.609 25.1415L22.2963 27.1699L22.067 28.39ZM39.882 23.6493C39.882 24.3715 39.5966 24.9685 39.138 25.4269V25.4312C38.6578 25.9114 37.992 26.2273 37.2741 26.361L26.5865 28.4068L26.3531 27.1873L37.0404 25.1415C37.5249 25.0464 37.9618 24.8476 38.2599 24.5535C38.4936 24.3198 38.6363 24.0166 38.6363 23.6493H39.882Z" fill="#844C0D"/>
<path d="M14.0679 4.67352C14.4138 4.67352 14.6908 4.95052 14.6908 5.29638C14.6908 5.63818 14.4138 5.91923 14.0679 5.91923H5.37475C5.02858 5.91923 4.75159 5.63818 4.75159 5.29638C4.75159 4.95052 5.02858 4.67352 5.37475 4.67352H14.0679Z" fill="#844C0D"/>
<path d="M9.97184 13.2409C10.3137 13.2409 10.5947 13.5216 10.5947 13.8638C10.5947 14.2096 10.3137 14.4863 9.97184 14.4863H5.37444C5.02858 14.4863 4.75159 14.2096 4.75159 13.8638C4.75159 13.522 5.02858 13.2409 5.37444 13.2409H9.97184Z" fill="#844C0D"/>
<path d="M14.0679 8.95721C14.4138 8.95721 14.6908 9.23421 14.6908 9.58007C14.6908 9.92156 14.4138 10.2029 14.0679 10.2029H5.37475C5.02858 10.2029 4.75159 9.92187 4.75159 9.58007C4.75159 9.23421 5.02858 8.95721 5.37475 8.95721H14.0679Z" fill="#844C0D"/>
<path d="M20.0291 0.228952L25.699 6.38364C25.9283 6.63447 25.9155 7.028 25.66 7.26137C25.5432 7.36949 25.3924 7.42589 25.2407 7.42589H21.3353C20.6694 7.42589 20.0681 7.15325 19.6312 6.71673C19.6185 6.70364 19.6051 6.69086 19.5923 6.67778C19.1769 6.24499 18.9218 5.65703 18.9218 5.01237V0.622793C18.9218 0.280987 19.1987 -6.10352e-05 19.5449 -6.10352e-05C19.739 -6.10352e-05 19.9123 0.0906095 20.0291 0.228952ZM23.8223 6.18049L20.1675 2.21841V5.01268C20.1675 5.32395 20.2887 5.605 20.4834 5.81251C20.4918 5.82124 20.5009 5.82996 20.5096 5.83869C20.7215 6.05056 21.0153 6.18018 21.3353 6.18018L23.8223 6.18049Z" fill="#844C0D"/>
<path d="M22.2699 23.6671H26.3828C26.7075 23.6671 27.0013 23.801 27.2135 24.0126L27.2179 24.017C27.43 24.2295 27.5637 24.5276 27.5637 24.852V29.4108C27.5637 30.3016 27.2007 31.1105 26.6121 31.6984C26.0285 32.287 25.2153 32.6503 24.3242 32.6503C23.4331 32.6503 22.6242 32.287 22.0362 31.6984C21.452 31.1105 21.0844 30.3019 21.0844 29.4108V24.852C21.0844 24.5276 21.2186 24.2288 21.4349 24.017V24.0126C21.6511 23.801 21.9456 23.6671 22.2699 23.6671ZM26.3183 24.9128H22.3347V29.4108C22.3347 29.9554 22.5553 30.4574 22.9186 30.8166C23.2819 31.1799 23.7795 31.4046 24.3242 31.4046C24.8738 31.4046 25.3708 31.1799 25.7341 30.8166C26.093 30.4577 26.3183 29.9554 26.3183 29.4108V24.9128Z" fill="#844C0D"/>
<path d="M24.3239 29.951C24.6679 29.951 24.9468 29.6722 24.9468 29.3282C24.9468 28.9842 24.6679 28.7053 24.3239 28.7053C23.9799 28.7053 23.701 28.9842 23.701 29.3282C23.701 29.6722 23.9799 29.951 24.3239 29.951Z" fill="#844C0D"/>
</svg>
