<svg width="29" height="29" viewBox="0 0 29 29" fill="none" xmlns="http://www.w3.org/2000/svg">
<path d="M24.4688 9.0625H22.6562V6.34375C22.6562 5.62269 22.3698 4.93117 21.8599 4.4213C21.3501 3.91144 20.6586 3.625 19.9375 3.625H4.53125C3.81019 3.625 3.11867 3.91144 2.6088 4.4213C2.09894 4.93117 1.8125 5.62269 1.8125 6.34375V24.4688C1.8125 25.1898 2.09894 25.8813 2.6088 26.3912C3.11867 26.9011 3.81019 27.1875 4.53125 27.1875H24.0156C24.8569 27.1875 25.6636 26.8533 26.2585 26.2585C26.8533 25.6636 27.1875 24.8569 27.1875 24.0156V11.7812C27.1875 11.0602 26.9011 10.3687 26.3912 9.8588C25.8813 9.34894 25.1898 9.0625 24.4688 9.0625ZM3.625 24.4688V6.34375C3.625 6.1034 3.72048 5.87289 3.89043 5.70293C4.06039 5.53298 4.2909 5.4375 4.53125 5.4375H19.9375C20.1779 5.4375 20.4084 5.53298 20.5783 5.70293C20.7483 5.87289 20.8438 6.1034 20.8438 6.34375V24.0156C20.8457 24.4869 20.9541 24.9516 21.1609 25.375H4.53125C4.2909 25.375 4.06039 25.2795 3.89043 25.1096C3.72048 24.9396 3.625 24.7091 3.625 24.4688ZM25.375 24.0156C25.375 24.3762 25.2318 24.7219 24.9768 24.9768C24.7219 25.2318 24.3762 25.375 24.0156 25.375C23.6551 25.375 23.3093 25.2318 23.0544 24.9768C22.7995 24.7219 22.6562 24.3762 22.6562 24.0156V10.875H24.4688C24.7091 10.875 24.9396 10.9705 25.1096 11.1404C25.2795 11.3104 25.375 11.5409 25.375 11.7812V24.0156Z" fill="#E6A358"/>
<path d="M18.125 9.96875H9.0625C8.82215 9.96875 8.59164 10.0642 8.42168 10.2342C8.25173 10.4041 8.15625 10.6346 8.15625 10.875C8.15625 11.1154 8.25173 11.3459 8.42168 11.5158C8.59164 11.6858 8.82215 11.7812 9.0625 11.7812H18.125C18.3654 11.7812 18.5959 11.6858 18.7658 11.5158C18.9358 11.3459 19.0312 11.1154 19.0312 10.875C19.0312 10.6346 18.9358 10.4041 18.7658 10.2342C18.5959 10.0642 18.3654 9.96875 18.125 9.96875Z" fill="#E6A358"/>
<path d="M18.125 14.5H6.34375C6.1034 14.5 5.87289 14.5955 5.70293 14.7654C5.53298 14.9354 5.4375 15.1659 5.4375 15.4062C5.4375 15.6466 5.53298 15.8771 5.70293 16.0471C5.87289 16.217 6.1034 16.3125 6.34375 16.3125H18.125C18.3654 16.3125 18.5959 16.217 18.7658 16.0471C18.9358 15.8771 19.0312 15.6466 19.0312 15.4062C19.0312 15.1659 18.9358 14.9354 18.7658 14.7654C18.5959 14.5955 18.3654 14.5 18.125 14.5Z" fill="#E6A358"/>
<path d="M18.125 19.0312H6.34375C6.1034 19.0312 5.87289 19.1267 5.70293 19.2967C5.53298 19.4666 5.4375 19.6971 5.4375 19.9375C5.4375 20.1779 5.53298 20.4084 5.70293 20.5783C5.87289 20.7483 6.1034 20.8438 6.34375 20.8438H18.125C18.3654 20.8438 18.5959 20.7483 18.7658 20.5783C18.9358 20.4084 19.0312 20.1779 19.0312 19.9375C19.0312 19.6971 18.9358 19.4666 18.7658 19.2967C18.5959 19.1267 18.3654 19.0312 18.125 19.0312Z" fill="#E6A358"/>
</svg>
